<svg width="22" height="21" viewBox="0 0 22 21" fill="none" xmlns="http://www.w3.org/2000/svg">
<path d="M20.8222 11.581C20.6189 10.9517 20.2791 10.3752 19.827 9.89264C19.3749 9.41008 18.8218 9.0334 18.2071 8.78957C17.7598 8.62377 17.3016 8.48895 16.8357 8.38607C16.0684 8.19645 15.343 8.02006 14.7785 7.54601C14.04 6.92199 13.5201 6.07843 13.2946 5.13828C13.2594 4.98173 13.2263 4.82739 13.1954 4.67745C13.03 3.89251 12.8757 3.15388 12.2848 2.41524C11.6932 1.69721 10.9139 1.15755 10.0336 0.856387C9.14482 0.552355 8.2015 0.440926 7.26632 0.529501C6.33114 0.618077 5.42551 0.90463 4.60959 1.37013C1.14351 3.40303 0.102814 7.91643 0.867896 11.323C1.32079 13.2065 2.23129 14.9493 3.51872 16.3968C3.55818 16.4425 3.6066 16.4795 3.66099 16.5056C3.71537 16.5318 3.77455 16.5464 3.83484 16.5487C3.89513 16.551 3.95525 16.5408 4.01145 16.5189C4.06766 16.497 4.11875 16.4637 4.16154 16.4212C4.24019 16.3415 4.28558 16.235 4.2885 16.1231C4.29141 16.0112 4.25164 15.9024 4.17725 15.8188C2.9884 14.4801 2.14719 12.8695 1.72782 11.129C1.0333 8.0355 1.95492 3.94984 5.05501 2.13081C5.75942 1.72873 6.54138 1.48124 7.34887 1.40483C8.15635 1.32841 8.97085 1.42482 9.73819 1.68763C10.4637 1.93344 11.1065 2.37622 11.5947 2.96646C11.9363 3.41657 12.1627 3.94342 12.2539 4.50107C10.931 5.54839 10.4834 6.91762 11.0325 8.30008C11.2929 8.90423 11.7238 9.41934 12.2724 9.78236C12.821 10.1454 13.4636 10.3406 14.1215 10.344C14.5002 10.3483 14.8758 10.2757 15.2256 10.1305C15.5755 9.98535 15.8922 9.77069 16.1566 9.49954L16.4565 9.19968C16.5116 9.21291 16.5689 9.22834 16.6263 9.24157C17.0524 9.33526 17.4716 9.45829 17.8808 9.60979C18.3763 9.80903 18.8219 10.1147 19.1862 10.5053C19.5504 10.8958 19.8244 11.3616 19.9887 11.8698C20.2223 12.6004 20.3031 13.3713 20.2261 14.1344C20.1491 14.8976 19.9159 15.6368 19.5411 16.306C17.6516 19.5935 12.2782 20.3542 8.63574 18.9806C8.5718 18.9563 8.50564 18.9298 8.44174 18.9056C8.07474 18.7584 7.71691 18.5893 7.3702 18.3991C7.28641 18.3521 7.18958 18.3335 7.09432 18.3463C6.99907 18.3591 6.91056 18.4025 6.84215 18.47C6.79381 18.5184 6.75736 18.5773 6.73568 18.6421C6.71399 18.707 6.70766 18.7759 6.71719 18.8436C6.72671 18.9113 6.75183 18.9759 6.79057 19.0322C6.8293 19.0886 6.88059 19.1351 6.9404 19.1682C7.31975 19.3769 7.71139 19.5623 8.11316 19.7236C8.18373 19.7501 8.2521 19.7787 8.32267 19.8052C9.61354 20.2741 10.9776 20.5093 12.351 20.4997C15.5546 20.4997 18.8422 19.2914 20.3062 16.747C20.747 15.9693 21.0207 15.108 21.1095 14.2184C21.1983 13.3289 21.1005 12.4305 20.8222 11.581ZM13.6563 9.41355C13.2613 9.33891 12.8905 9.16893 12.5762 8.9184C12.2619 8.66786 12.0135 8.34434 11.8527 7.97596C11.4205 6.88675 11.9122 6.03787 12.4744 5.48224C12.7578 6.55279 13.3646 7.50986 14.2119 8.22291C14.5901 8.53063 15.0212 8.76674 15.4841 8.91966C15.2435 9.14583 14.9508 9.30921 14.632 9.39535C14.3132 9.48149 13.9781 9.48774 13.6563 9.41354V9.41355Z" fill="black"/>
<path d="M3.34562 9.78011C3.15462 8.89526 3.16842 7.97845 3.38596 7.09974C3.6035 6.22104 4.01903 5.40369 4.60079 4.71014C4.64056 4.6621 4.6901 4.62306 4.74611 4.59562C4.80212 4.56819 4.86333 4.55297 4.92567 4.551C4.98801 4.54903 5.05005 4.56034 5.10769 4.58418C5.16532 4.60802 5.21723 4.64384 5.25996 4.68928L5.53955 4.98456L5.23638 4.66437L5.25862 4.68775C5.333 4.76562 5.37622 4.86806 5.38012 4.97567C5.38401 5.08328 5.3483 5.18858 5.27974 5.27162C4.78481 5.86143 4.43084 6.5563 4.24472 7.30342C4.05859 8.05054 4.04523 8.83025 4.20562 9.58331C4.23055 9.69206 4.21342 9.8062 4.15769 9.90284C4.10195 9.99948 4.01172 10.0715 3.90511 10.1043C3.84708 10.1219 3.78605 10.1274 3.72581 10.1204C3.66557 10.1135 3.60741 10.0942 3.55494 10.0638C3.50247 10.0333 3.45681 9.99248 3.42081 9.94368C3.3848 9.89489 3.3592 9.83921 3.34562 9.78011Z" fill="black"/>
</svg>
