<svg width="30" height="16" viewBox="0 0 30 16" fill="none" xmlns="http://www.w3.org/2000/svg">
<path d="M29.1144 2.51711C28.911 2.46656 28.6965 2.48595 28.5055 2.57216C28.3145 2.65836 28.158 2.80636 28.0613 2.99232L26.6961 5.76693L26.0884 6.96691L25.9987 6.83503C25.1328 5.51569 24.0729 4.33451 22.8546 3.33139C21.6825 2.38958 20.376 1.62854 18.9785 1.07354C18.3359 0.819485 17.6768 0.60923 17.0058 0.444217C16.6719 0.36202 16.3379 0.290097 15.9989 0.233587C14.3152 -0.0643459 12.5933 -0.0773704 10.9052 0.195057L10.8667 0.202763C9.5443 0.414208 8.25891 0.813833 7.04969 1.38948C6.36486 1.71862 5.70438 2.0962 5.07329 2.51934C5.06301 2.52493 5.0556 2.52901 5.05485 2.53177C3.4776 3.62097 2.01352 4.86554 0.684557 6.24681C0.268251 6.66655 0.0245926 7.22721 0.00176237 7.81794C-0.0210679 8.40868 0.178592 8.98647 0.561262 9.43709C1.50394 10.5313 6.54881 15.9923 13.3686 16H13.384C14.0256 16 14.6663 15.9516 15.3007 15.8552C15.9423 15.7571 16.5757 15.6113 17.1956 15.4189C17.8324 15.2207 18.4544 14.9779 19.0571 14.6922C19.6868 14.3933 20.2966 14.0541 20.8827 13.6767C21.5031 13.277 22.1 12.8419 22.6704 12.3735C23.2793 11.8735 23.8626 11.343 24.4179 10.7841C24.9129 10.2876 25.3788 9.76745 25.8325 9.23405C25.9353 9.11315 26.0381 8.99227 26.1409 8.8714C26.8166 9.86338 27.5873 10.9934 28.1332 11.7925C28.2516 11.9679 28.4284 12.0955 28.6322 12.1525C28.8359 12.2094 29.0533 12.192 29.2454 12.1033C29.4057 12.026 29.5405 11.9043 29.6338 11.7527C29.7271 11.6011 29.7751 11.426 29.772 11.248V3.38019C29.7739 3.1837 29.7103 2.99217 29.5913 2.83586C29.4722 2.67956 29.3044 2.5674 29.1144 2.51711ZM13.384 14.9725H13.3712C12.469 14.9691 11.5699 14.8663 10.6903 14.6658C12.2014 12.8513 13.0793 10.5933 13.1905 8.23457C13.1938 8.16483 13.183 8.09512 13.1587 8.02966C13.1344 7.96421 13.0971 7.90436 13.049 7.85374C13.0009 7.80311 12.943 7.76277 12.8789 7.73514C12.8147 7.7075 12.7457 7.69316 12.6759 7.69297C12.5448 7.69268 12.4186 7.74277 12.3234 7.83287C12.2282 7.92297 12.1712 8.04621 12.1643 8.17711C12.0476 10.478 11.1328 12.6662 9.57716 14.3655C5.16166 12.9696 2.04297 9.5836 1.33959 8.76666C1.12497 8.51288 1.01352 8.18775 1.02732 7.85568C1.04111 7.52361 1.17915 7.20883 1.41408 6.97374C2.68572 5.64916 4.08564 4.45402 5.59328 3.40587C6.20882 2.99173 6.85451 2.62424 7.52491 2.30649C8.64825 1.77403 9.84186 1.40469 11.0696 1.20967C13.608 0.799328 16.2101 1.08244 18.6009 2.02907C19.9026 2.54535 21.1192 3.25453 22.2099 4.1328C23.3499 5.07103 24.3407 6.17705 25.1484 7.41298C25.2637 7.58263 25.3971 7.77887 25.5412 7.99056L24.5553 9.14974C21.0539 13.0138 17.2972 14.9725 13.384 14.9725L13.384 14.9725ZM26.7485 7.93723L28.7446 3.996V10.8652C28.1519 9.99754 27.3854 8.87266 26.7486 7.93722L26.7485 7.93723Z" fill="black"/>
<path d="M6.49305 5.53101C6.27926 5.53101 6.07027 5.59442 5.8925 5.7132C5.71474 5.83198 5.5762 6.00081 5.49439 6.19834C5.41257 6.39586 5.39117 6.61321 5.43288 6.82289C5.4746 7.03258 5.57755 7.22519 5.72873 7.37636C5.87991 7.52754 6.07252 7.63049 6.28221 7.6722C6.4919 7.7139 6.70924 7.6925 6.90677 7.61068C7.10429 7.52886 7.27311 7.39031 7.39189 7.21255C7.51067 7.03478 7.57407 6.82579 7.57407 6.61199C7.57407 6.47003 7.54611 6.32946 7.49179 6.19831C7.43746 6.06715 7.35784 5.94798 7.25745 5.8476C7.15707 5.74722 7.0379 5.6676 6.90674 5.61328C6.77559 5.55895 6.63501 5.531 6.49305 5.53101Z" fill="black"/>
</svg>
