<svg width="27" height="17" viewBox="0 0 27 17" fill="none" xmlns="http://www.w3.org/2000/svg">
<g clip-path="url(#clip0)">
<path d="M9.61735 10.0467H13.6846C12.9707 12.0651 11.0371 13.5123 8.77338 13.4956C6.02668 13.4753 3.75553 11.278 3.6489 8.53333C3.5346 5.59123 5.895 3.16126 8.81219 3.16126C10.146 3.16126 11.3632 3.66947 12.2809 4.50225C12.4982 4.69954 12.8291 4.70079 13.0429 4.49958L14.5368 3.0936C14.7704 2.87369 14.7712 2.50232 14.5383 2.28168C13.083 0.902965 11.1308 0.0436076 8.97796 0.00156854C4.38624 -0.0880769 0.515834 3.67663 0.48385 8.26911C0.451582 12.8961 4.19269 16.657 8.81219 16.657C13.2547 16.657 16.8838 13.1786 17.1269 8.79693C17.1334 8.742 17.1376 6.8854 17.1376 6.8854H9.61735C9.3091 6.8854 9.05925 7.13525 9.05925 7.4435V9.48859C9.05925 9.79684 9.30916 10.0467 9.61735 10.0467Z" fill="black" fill-opacity="0.8"/>
<path d="M24.029 7.07098V5.07281C24.029 4.80268 23.8101 4.58374 23.54 4.58374H21.8582C21.588 4.58374 21.3691 4.80268 21.3691 5.07281V7.07098H19.3709C19.1008 7.07098 18.8818 7.28992 18.8818 7.56005V9.24184C18.8818 9.51197 19.1008 9.73091 19.3709 9.73091H21.3691V11.7291C21.3691 11.9992 21.588 12.2181 21.8582 12.2181H23.54C23.8101 12.2181 24.029 11.9992 24.029 11.7291V9.73091H26.0272C26.2973 9.73091 26.5163 9.51197 26.5163 9.24184V7.56005C26.5163 7.28992 26.2973 7.07098 26.0272 7.07098H24.029Z" fill="black" fill-opacity="0.8"/>
</g>
<defs>
<clipPath id="clip0">
<rect width="26.0327" height="16.657" fill="white" transform="translate(0.483643)"/>
</clipPath>
</defs>
</svg>
