<svg width="12" height="20" viewBox="0 0 12 20" fill="none" xmlns="http://www.w3.org/2000/svg">
<path d="M9.0546 7.10788C8.66674 6.78995 8.2085 6.56934 7.71808 6.46445C7.22766 6.35955 6.71927 6.3734 6.23529 6.50485C6.27708 5.89113 6.45037 4.96026 7.07272 4.27159C7.58086 3.70947 8.31309 3.39532 9.25272 3.33553C9.34818 3.32917 9.43724 3.28527 9.50042 3.21342C9.5636 3.14157 9.59575 3.04762 9.58984 2.95213C9.58393 2.85663 9.54045 2.76737 9.46889 2.70386C9.39734 2.64034 9.30354 2.60775 9.20802 2.61322C8.07125 2.68462 7.17235 3.07981 6.53216 3.79075C6.19927 4.16766 5.94499 4.60723 5.7842 5.0837L5.2901 4.58962C5.59159 4.18213 5.74973 3.68631 5.73986 3.1795C5.70947 1.99406 4.80059 0.488449 0.642862 0.0472548L0.197694 0L0.24486 0.445168C0.686318 4.60174 2.19123 5.51133 3.37587 5.54242C3.39513 5.54286 3.41456 5.54313 3.43382 5.54313C3.9171 5.54034 4.38721 5.38532 4.77736 5.1001L5.57655 5.89929C5.54338 6.0972 5.52071 6.29673 5.50862 6.49704C5.02812 6.37133 4.52468 6.36117 4.0395 6.46739C3.55431 6.5736 3.10117 6.79318 2.71714 7.10815C1.02708 8.41415 -0.0178249 11.4301 0.0667917 13.4274C0.133662 14.9448 0.676847 16.4025 1.61922 17.5936C2.43906 18.6269 3.60764 19.3257 4.90587 19.5589C5.02935 19.6982 5.18111 19.8096 5.35103 19.8857C5.52095 19.9617 5.70513 20.0007 5.89129 20C6.07746 19.9993 6.26133 19.9589 6.43066 19.8815C6.59998 19.8041 6.75087 19.6916 6.87327 19.5513C7.52341 19.43 8.14702 19.1948 8.71542 18.8567C9.26666 18.5257 9.75356 18.0978 10.1527 17.5936C11.0951 16.4025 11.6384 14.9448 11.7055 13.4274C11.7897 11.4298 10.7446 8.41371 9.0546 7.10788ZM3.39495 4.81902C2.1794 4.78722 1.36149 3.40747 1.01825 0.820557C3.6057 1.16371 4.98537 1.98187 5.01664 3.19804C5.02266 3.50671 4.93716 3.81026 4.77091 4.0704L3.56878 2.86829C3.50093 2.80048 3.40893 2.7624 3.31301 2.76241C3.21709 2.76243 3.1251 2.80054 3.05727 2.86837C2.98944 2.93619 2.95133 3.02818 2.95132 3.1241C2.9513 3.22003 2.98938 3.31203 3.05719 3.37988L4.25703 4.57979C3.99942 4.74251 3.69958 4.82572 3.39495 4.81902ZM10.9826 13.3969C10.9223 14.7613 10.4338 16.072 9.5865 17.1432C9.2414 17.5793 8.82032 17.9495 8.34356 18.2359C7.81253 18.5516 7.22647 18.7638 6.61642 18.8613L6.46096 18.886L6.37316 19.0166C6.31979 19.0962 6.24772 19.1615 6.16324 19.2068C6.07877 19.2521 5.98447 19.276 5.88862 19.2764C5.79276 19.2768 5.69827 19.2537 5.61342 19.2091C5.52857 19.1645 5.45595 19.0998 5.40192 19.0206L5.31324 18.8911L5.15814 18.8675C3.98508 18.6887 2.92311 18.0727 2.18558 17.1432C1.33818 16.0721 0.849758 14.7613 0.789661 13.3968C0.714409 11.6176 1.66922 8.83246 3.15965 7.68068C3.59579 7.32289 4.14042 7.12367 4.70448 7.11556C4.95899 7.11694 5.21186 7.15633 5.45473 7.23242C5.73738 7.30785 6.03486 7.30785 6.31751 7.23242C6.70673 7.10737 7.12128 7.08287 7.52253 7.16122C7.92377 7.23957 8.29865 7.41821 8.61224 7.68049C10.1027 8.83202 11.0577 11.6174 10.9826 13.3969Z" fill="black"/>
<path d="M5.93227 16.2308C6.16642 16.2308 6.35624 16.0409 6.35624 15.8068C6.35624 15.5726 6.16642 15.3828 5.93227 15.3828C5.69812 15.3828 5.5083 15.5726 5.5083 15.8068C5.5083 16.0409 5.69812 16.2308 5.93227 16.2308Z" fill="black"/>
<path d="M8.31752 14.9532C8.55168 14.9532 8.74149 14.7633 8.74149 14.5292C8.74149 14.295 8.55168 14.1052 8.31752 14.1052C8.08337 14.1052 7.89355 14.295 7.89355 14.5292C7.89355 14.7633 8.08337 14.9532 8.31752 14.9532Z" fill="black"/>
<path d="M8.09194 17.2708C8.32609 17.2708 8.51591 17.081 8.51591 16.8468C8.51591 16.6127 8.32609 16.4229 8.09194 16.4229C7.85779 16.4229 7.66797 16.6127 7.66797 16.8468C7.66797 17.081 7.85779 17.2708 8.09194 17.2708Z" fill="black"/>
</svg>
