<svg width="16" height="20" viewBox="0 0 16 20" fill="none" xmlns="http://www.w3.org/2000/svg">
<g clip-path="url(#clip0)">
<path d="M14.3662 9.27539C14.259 9.27539 14.1563 9.31795 14.0805 9.3937C14.0048 9.46945 13.9622 9.5722 13.9622 9.67933V12.2374C13.9613 13.0505 13.7974 13.8553 13.4801 14.604C13.1628 15.3527 12.6986 16.0302 12.115 16.5964C11.5313 17.1626 10.8401 17.6061 10.0821 17.9006C9.32415 18.195 8.51482 18.3345 7.702 18.3108C4.39724 18.2127 1.80983 15.4144 1.80983 12.1081V9.67933C1.80983 9.5722 1.76727 9.46945 1.69152 9.3937C1.61576 9.31795 1.51302 9.27539 1.40589 9.27539C1.29876 9.27539 1.19602 9.31795 1.12026 9.3937C1.04451 9.46945 1.00195 9.5722 1.00195 9.67933V12.1003C1.00195 15.7759 3.8729 18.8867 7.4821 19.1067V19.5961C7.4821 19.7032 7.52466 19.8059 7.60041 19.8817C7.67616 19.9574 7.7789 20 7.88604 20C7.99317 20 8.09591 19.9574 8.17166 19.8817C8.24741 19.8059 8.28997 19.7032 8.28997 19.5961V19.1084C10.0419 19.0035 11.6879 18.2342 12.8921 16.9574C14.0962 15.6806 14.7679 13.9924 14.7701 12.2374V9.67933C14.7701 9.62628 14.7597 9.57375 14.7394 9.52474C14.7191 9.47573 14.6893 9.4312 14.6518 9.39369C14.6143 9.35618 14.5698 9.32643 14.5207 9.30613C14.4717 9.28583 14.4192 9.27539 14.3662 9.27539Z" fill="black"/>
<path d="M15.2489 4.93307C14.7331 3.96622 12.7629 3.21959 8.86063 2.51231C8.66717 2.47836 8.47202 2.45485 8.27603 2.44189C8.27504 2.09837 8.32544 1.48756 8.65965 1.11086C8.80527 0.947998 9.00108 0.838403 9.21605 0.799454C9.3065 0.7806 9.38768 0.731141 9.44592 0.659412C9.50416 0.587682 9.53589 0.498069 9.53576 0.405675V0.405663C9.53602 0.346189 9.52314 0.287392 9.49804 0.233473C9.47294 0.179554 9.43624 0.131843 9.39057 0.0937463C9.3449 0.0556501 9.29138 0.0281092 9.23383 0.0130908C9.17629 -0.00192763 9.11613 -0.00405302 9.05767 0.00686644C8.66956 0.0792298 8.31673 0.279101 8.05513 0.574778C7.54537 1.14953 7.46697 1.97755 7.46796 2.44314C7.28156 2.45667 7.09598 2.47975 6.91196 2.51231C3.00967 3.21959 1.0395 3.96622 0.52373 4.93307C0.28657 5.38819 0.17009 5.89652 0.185422 6.4095C0.200753 6.92247 0.347384 7.42294 0.611302 7.86308C1.34995 9.06839 2.50219 9.23248 3.61873 9.23248C3.83214 9.23248 4.04417 9.22647 4.25166 9.22055C4.45599 9.21483 4.65974 9.20901 4.86032 9.20901H10.9123C11.1129 9.20901 11.3166 9.21483 11.5209 9.22055C12.815 9.25783 14.2816 9.29875 15.1613 7.86308C15.4252 7.42294 15.5718 6.92247 15.5872 6.4095C15.6025 5.89652 15.486 5.38819 15.2489 4.93307ZM14.4725 7.441C13.8371 8.47776 12.7744 8.44749 11.5438 8.41307C11.3318 8.40706 11.1203 8.40114 10.9123 8.40114H4.86032C4.65224 8.40114 4.44081 8.40706 4.22877 8.41307C2.99901 8.44779 1.93533 8.47777 1.30003 7.441C1.10841 7.12137 1.00196 6.75795 0.99084 6.38545C0.979721 6.01295 1.06431 5.64382 1.23652 5.31333C1.49273 4.83287 2.71045 4.09482 7.05592 3.30716C7.605 3.20736 8.16756 3.20736 8.71664 3.30716C13.0621 4.09482 14.2798 4.83287 14.536 5.31333C14.7083 5.64382 14.7928 6.01295 14.7817 6.38545C14.7706 6.75795 14.6642 7.12137 14.4725 7.441Z" fill="black"/>
<path d="M4.84061 16.1103C3.76908 15.3896 3.23663 14.1935 3.01679 13.5553C2.99808 13.5019 2.99084 13.4451 2.99553 13.3887C3.00022 13.3324 3.01674 13.2776 3.04401 13.228C3.07128 13.1785 3.10869 13.1352 3.15381 13.101C3.19892 13.0669 3.25073 13.0427 3.30584 13.0299L3.31115 13.0287C3.40718 13.0061 3.50817 13.0198 3.59469 13.0672C3.68121 13.1146 3.74716 13.1923 3.77985 13.2854C3.96525 13.8208 4.4198 14.8581 5.30309 15.4473C5.38264 15.5025 5.4395 15.5847 5.46314 15.6786C5.48679 15.7726 5.47563 15.8719 5.43172 15.9582C5.40577 16.0099 5.36906 16.0554 5.32404 16.0917C5.27903 16.128 5.22676 16.1543 5.17075 16.1687C5.11474 16.1831 5.0563 16.1853 4.99935 16.1752C4.94241 16.1652 4.88828 16.143 4.84061 16.1103Z" fill="black"/>
</g>
<defs>
<clipPath id="clip0">
<rect width="15.4044" height="20" fill="white" transform="translate(0.184082)"/>
</clipPath>
</defs>
</svg>
