<svg width="33" height="33" viewBox="0 0 33 33" fill="none" xmlns="http://www.w3.org/2000/svg">
<path d="M21.9918 16.5C21.9918 16.7964 21.7444 16.994 21.497 16.994H16.9948V21.4895C16.9948 21.7859 16.7474 21.9835 16.5 21.9835C16.2031 21.9835 16.0052 21.7365 16.0052 21.4895V16.994H11.503C11.2061 16.994 11.0082 16.747 11.0082 16.5C11.0082 16.2036 11.2556 16.006 11.503 16.006H16.0052V11.5105C16.0052 11.2141 16.2526 11.0165 16.5 11.0165C16.7969 11.0165 16.9948 11.2635 16.9948 11.5105V16.006H21.497C21.7444 16.006 21.9918 16.2036 21.9918 16.5ZM28.1762 4.84132C34.6079 11.2635 34.6079 21.7365 28.1762 28.1587C25.0592 31.271 20.9033 33 16.5 33C12.0967 33 7.94078 31.271 4.82384 28.1587C-1.60795 21.7365 -1.60795 11.2635 4.82384 4.84132C7.94078 1.72904 12.0967 0 16.5 0C20.9033 0 25.0592 1.72904 28.1762 4.84132ZM27.4835 5.53293C24.5645 2.61826 20.6559 0.988024 16.5 0.988024C12.3441 0.988024 8.43553 2.61826 5.51649 5.53293C-0.51949 11.5599 -0.51949 21.4401 5.51649 27.4671C8.43553 30.3817 12.3441 32.012 16.5 32.012C20.6559 32.012 24.5645 30.3817 27.4835 27.4671C33.5195 21.4401 33.5195 11.5599 27.4835 5.53293Z" fill="black"/>
</svg>
