<svg width="13" height="20" viewBox="0 0 13 20" fill="none" xmlns="http://www.w3.org/2000/svg">
<path d="M12.308 8.12389L12.3004 8.06847C11.7155 5.27042 9.76801 4.28423 8.37285 3.94021C8.58927 3.60218 8.85756 3.30033 9.16786 3.04575C9.42156 2.83501 9.60936 2.55581 9.70891 2.24139C9.80847 1.92696 9.81558 1.59055 9.7294 1.2722C9.64322 0.953848 9.46739 0.666963 9.22282 0.445691C8.97825 0.224419 8.67525 0.0780802 8.34989 0.0240925C8.11364 -0.016203 7.87152 -0.00586084 7.63957 0.0544344C7.40761 0.11473 7.19111 0.223603 7.00439 0.373848C5.75061 1.38872 5.58431 2.81449 5.68379 3.87522C4.28088 4.15617 2.09445 5.07548 1.46947 8.06846L1.46378 8.09522L0.855957 19.1479L1.61849 19.1899L2.22443 8.19652C2.76915 5.63738 4.60385 4.85376 5.79837 4.61869C5.82516 4.73719 5.85194 4.84422 5.87676 4.93787C5.92486 5.10778 6.01391 5.2633 6.13609 5.39079C6.25828 5.51829 6.40987 5.61386 6.57759 5.66914C6.7453 5.72442 6.92402 5.73771 7.09806 5.70785C7.27211 5.67799 7.43618 5.60589 7.57588 5.49787C7.76448 5.35176 7.89843 5.14643 7.95616 4.91493C7.97927 4.81863 8.00734 4.72358 8.04024 4.63016C9.23476 4.88244 11.0103 5.68516 11.5455 8.19652L12.1514 19.1899L12.9158 19.1479L12.308 8.12389ZM7.74403 3.50444C7.68291 3.6 7.62747 3.69556 7.57391 3.79494C7.44862 4.02761 7.34684 4.27218 7.27005 4.52503C7.24905 4.59384 7.22995 4.66264 7.21275 4.73145C7.19458 4.79669 7.1556 4.85422 7.10173 4.89528C7.04786 4.93633 6.98206 4.95867 6.91433 4.95888C6.8466 4.9591 6.78066 4.93719 6.72653 4.89648C6.6724 4.85577 6.63305 4.79849 6.61447 4.73336C6.59534 4.66646 6.57816 4.59766 6.55904 4.52312C6.50062 4.27586 6.45912 4.02491 6.43483 3.77201C6.3527 2.86417 6.51322 1.75566 7.48601 0.968233C7.58804 0.885924 7.70644 0.826304 7.83332 0.793349C7.96021 0.760393 8.09266 0.754857 8.22185 0.77711C8.40308 0.806914 8.57192 0.888191 8.70825 1.01126C8.84459 1.13432 8.94267 1.29399 8.99081 1.47123C9.03895 1.64848 9.03512 1.83582 8.97978 2.01095C8.92443 2.18608 8.81991 2.3416 8.67866 2.45899C8.31673 2.75892 8.00171 3.1113 7.74403 3.50444Z" fill="black"/>
<path d="M8.97068 10.7958C8.33652 10.4302 7.61742 10.2378 6.88545 10.2378C6.15348 10.2378 5.43437 10.4302 4.80022 10.7958C4.0363 11.2478 3.34932 11.8188 2.76515 12.4871L2.63086 12.6488L2.69544 12.8488C2.69684 12.8533 2.69907 12.8574 2.70066 12.8618L2.69992 12.8621C2.72101 12.92 3.23736 14.2907 5.10893 15.141C5.12162 15.1468 5.13459 15.1516 5.14719 15.1572L4.01594 16.9979C3.93078 17.1365 3.85901 17.2829 3.80158 17.4351C3.51088 18.2051 3.54373 19.5247 4.53742 19.9113C4.68602 19.9696 4.8442 19.9998 5.00385 20.0001C5.19226 19.9991 5.37834 19.9582 5.54987 19.8803C6.13584 19.6188 6.54515 18.9924 6.71761 18.5355C6.77506 18.3833 6.8179 18.226 6.84555 18.0657L6.8855 17.8339L6.92544 18.0655C6.95303 18.2259 6.99587 18.3833 7.05339 18.5355C7.22584 18.9924 7.63515 19.6188 8.22103 19.8803C8.37901 19.9534 8.55014 19.9938 8.72414 19.9992C8.89813 20.0045 9.07142 19.9746 9.23357 19.9113C10.2272 19.5247 10.2601 18.2051 9.96941 17.4351C9.91199 17.2829 9.84018 17.1365 9.75496 16.9979L8.62381 15.1573C8.6364 15.1517 8.64928 15.1469 8.66188 15.1412C10.5335 14.2907 11.05 12.92 11.0711 12.8621L11.0703 12.8618C11.0718 12.8574 11.0742 12.8533 11.0756 12.8488L11.1401 12.6488L11.0058 12.4871C10.4216 11.8188 9.7346 11.2478 8.97068 10.7958ZM5.18302 11.4576C5.70074 11.1591 6.28784 11.002 6.88545 11.002C7.48306 11.002 8.07017 11.1591 8.58788 11.4576C9.16273 11.7994 9.69032 12.2151 10.1572 12.6939C9.70056 12.8679 8.57631 13.0553 6.8855 13.0553C5.19414 13.0553 4.0697 12.8677 3.61336 12.6937C4.08011 12.2146 4.60786 11.799 5.18302 11.4576ZM9.10366 17.3983C9.16346 17.4955 9.21387 17.5982 9.25419 17.7049C9.41685 18.1363 9.4566 19.0042 8.95649 19.1986C8.88862 19.2259 8.81577 19.2385 8.74269 19.2356C8.66962 19.2327 8.59797 19.2145 8.53244 19.182C8.18705 19.0281 7.8944 18.599 7.7686 18.2656C7.72826 18.1588 7.6982 18.0484 7.67882 17.9358L7.39662 16.2986C7.37584 16.1781 7.31316 16.0688 7.21963 15.99C7.1261 15.9112 7.00774 15.868 6.88545 15.868C6.76315 15.868 6.64479 15.9112 6.55126 15.99C6.45773 16.0688 6.39505 16.1781 6.37428 16.2986L6.09216 17.9358C6.07275 18.0483 6.04268 18.1588 6.00239 18.2656C5.87659 18.599 5.58384 19.0281 5.23845 19.182C5.17292 19.2145 5.10127 19.2327 5.0282 19.2356C4.95513 19.2385 4.88227 19.2259 4.8144 19.1987C4.31429 19.0042 4.35404 18.1363 4.51689 17.7049C4.55717 17.5981 4.60755 17.4954 4.66732 17.3981L5.89059 15.4076C6.54445 15.5655 7.22653 15.5656 7.88039 15.4076L9.10366 17.3983ZM8.34561 14.4452C7.88704 14.6537 7.38915 14.7615 6.88543 14.7615C6.3817 14.7614 5.88383 14.6535 5.42529 14.445C4.96803 14.2418 4.54699 13.9654 4.17878 13.6265C5.07379 13.7686 5.97938 13.8333 6.88549 13.8198C7.79125 13.8333 8.69649 13.7687 9.59117 13.6267C9.22327 13.9655 8.80255 14.242 8.34561 14.4452Z" fill="black"/>
<path d="M4.60796 9.79625C5.12765 9.79625 5.54893 9.37496 5.54893 8.85528C5.54893 8.33559 5.12765 7.91431 4.60796 7.91431C4.08828 7.91431 3.66699 8.33559 3.66699 8.85528C3.66699 9.37496 4.08828 9.79625 4.60796 9.79625Z" fill="black"/>
<path d="M9.1607 9.79625C9.68038 9.79625 10.1017 9.37496 10.1017 8.85528C10.1017 8.33559 9.68038 7.91431 9.1607 7.91431C8.64101 7.91431 8.21973 8.33559 8.21973 8.85528C8.21973 9.37496 8.64101 9.79625 9.1607 9.79625Z" fill="black"/>
</svg>
