<svg width="18" height="20" viewBox="0 0 18 20" fill="none" xmlns="http://www.w3.org/2000/svg">
<path d="M17.3695 1.76938L15.8494 0.487828C15.8244 0.46348 15.7996 0.439102 15.7729 0.416265C14.6302 -0.565435 12.3794 0.244857 10.6445 2.26193C10.0717 2.91513 9.61412 3.66103 9.29145 4.4677C9.27494 4.51027 9.26703 4.55568 9.26818 4.60132C9.26932 4.64696 9.27951 4.69192 9.29814 4.73359C9.31677 4.77527 9.34348 4.81284 9.37672 4.84413C9.40997 4.87543 9.44908 4.89982 9.49181 4.9159C9.53454 4.93197 9.58003 4.93942 9.62565 4.93781C9.67128 4.9362 9.71613 4.92556 9.75762 4.9065C9.79911 4.88744 9.8364 4.86035 9.86735 4.82679C9.8983 4.79323 9.92229 4.75387 9.93794 4.71098C10.233 3.98072 10.6493 3.30552 11.1691 2.71382C12.2495 1.45683 13.5983 0.68636 14.5453 0.68636C14.8257 0.674244 15.1009 0.76439 15.3198 0.940026L15.322 0.941832C15.6864 1.25721 15.797 1.88172 15.6223 2.65669C15.4267 3.51892 14.9176 4.46253 14.187 5.31091C13.458 6.15929 12.6027 6.80337 11.7769 7.12541C11.7328 7.14632 11.6934 7.17602 11.6611 7.21268C11.6289 7.24935 11.6045 7.2922 11.5894 7.33863C11.5743 7.38506 11.5689 7.43407 11.5734 7.48268C11.5779 7.53129 11.5923 7.57847 11.6157 7.62133C11.6333 7.6645 11.6605 7.70314 11.6951 7.73436C11.7297 7.76559 11.771 7.7886 11.8158 7.80168C11.9729 7.79927 12.1267 7.75663 12.2626 7.67782C13.2097 7.26834 14.0459 6.53666 14.7133 5.7628C15.3278 5.06138 15.8079 4.25275 16.1295 3.37741C16.2803 3.39755 16.4311 3.41771 16.5819 3.43791C16.6553 3.44822 16.7295 3.45167 16.8035 3.44821C16.9426 3.44216 17.0781 3.40202 17.198 3.33132C17.3289 3.25341 17.4399 3.14618 17.5223 3.01808C17.6047 2.88997 17.6563 2.74448 17.6729 2.59307C17.6895 2.44165 17.6708 2.28845 17.6181 2.14552C17.5655 2.00258 17.4803 1.87383 17.3695 1.76938H17.3695ZM16.9639 2.59754C16.8809 2.79967 16.6654 2.74792 16.4952 2.72713C16.4363 2.71993 16.3776 2.71182 16.3187 2.70386C16.3774 2.42317 16.4026 2.13652 16.3938 1.84989L16.8996 2.2784C16.9404 2.31943 16.9683 2.37157 16.9797 2.42831C16.9911 2.48505 16.9856 2.5439 16.9639 2.59754Z" fill="black"/>
<path d="M2.36709 12.7156C2.41587 12.7696 2.48113 12.8061 2.55275 12.8192C2.62437 12.8324 2.69832 12.8215 2.76312 12.7883C2.99519 12.6759 3.25699 12.6402 3.51069 12.6863C3.76438 12.7324 3.99685 12.858 4.1745 13.0449C4.61362 13.496 4.61475 14.1751 4.17411 14.5551C3.93999 14.7377 3.64585 14.8258 3.3499 14.8019C3.05396 14.7779 2.77779 14.6437 2.57606 14.4259C2.4891 14.3366 2.41654 14.2343 2.36097 14.1227C2.33824 14.0757 2.30452 14.0349 2.26268 14.0037C2.22083 13.9725 2.17208 13.9518 2.12056 13.9435C2.06044 13.9342 1.9989 13.9419 1.94294 13.9657C1.88698 13.9896 1.83883 14.0287 1.80394 14.0785C1.76906 14.1284 1.74884 14.187 1.74558 14.2478C1.74233 14.3085 1.75615 14.369 1.7855 14.4223C1.86955 14.5754 1.97422 14.7162 2.09659 14.8408C2.80044 15.5659 3.94591 15.6571 4.65152 15.0468C5.35672 14.439 5.35921 13.3541 4.65398 12.63C4.3803 12.3425 4.02539 12.1453 3.63668 12.0649C3.24797 11.9844 2.84397 12.0245 2.47864 12.1798C2.42994 12.2017 2.38711 12.2348 2.35367 12.2764C2.32023 12.318 2.29712 12.367 2.28624 12.4192C2.27536 12.4715 2.27701 12.5256 2.29106 12.5771C2.30512 12.6286 2.33117 12.6761 2.36709 12.7156Z" fill="black"/>
<path d="M5.48137 4.9541C5.34628 4.9541 5.21296 4.95582 5.07964 4.96276H5.07794C4.80268 4.97142 4.53603 4.99392 4.27455 5.02509C3.65356 5.09377 3.04246 5.23318 2.45312 5.44062H2.45143C2.25415 5.50881 2.06106 5.5886 1.87318 5.67955C0.77373 6.20243 0.0932617 6.96943 0.0932617 7.83686V17.1171C0.0932617 18.7342 2.46006 19.9999 5.48137 19.9999C8.50438 19.9999 10.8712 18.7342 10.8712 17.1171V7.83686C10.8712 6.21975 8.50438 4.9541 5.48137 4.9541ZM10.1786 17.1171C10.1786 18.3049 8.02824 19.3073 5.48137 19.3073C2.93619 19.3073 0.785819 18.3049 0.785819 17.1171V9.27042C1.70215 10.1425 3.44209 10.7196 5.48137 10.7196C7.52185 10.7196 9.26211 10.1425 10.1786 9.27037V17.1171ZM5.48137 10.0271C2.93619 10.0271 0.785819 9.02459 0.785819 7.83686C0.789333 7.61616 0.858658 7.40154 0.984911 7.22049L3.83478 8.62292C3.87562 8.64327 3.92008 8.65535 3.9656 8.65847C4.01112 8.6616 4.05681 8.6557 4.10004 8.64112C4.14328 8.62655 4.18321 8.60357 4.21754 8.57352C4.25188 8.54347 4.27994 8.50693 4.30011 8.46601C4.32029 8.42508 4.33219 8.38058 4.33512 8.33505C4.33805 8.28951 4.33196 8.24385 4.3172 8.20067C4.30244 8.1575 4.27929 8.11767 4.2491 8.08346C4.2189 8.04926 4.18225 8.02135 4.14124 8.00135L1.49394 6.69761C1.77861 6.49163 2.0881 6.32235 2.4151 6.19377L5.83282 7.87669C5.91524 7.91732 6.01044 7.92356 6.09746 7.89401C6.18448 7.86446 6.25619 7.80155 6.29683 7.71913C6.33747 7.6367 6.3437 7.54151 6.31415 7.45449C6.28461 7.36747 6.2217 7.29575 6.13928 7.25512L3.36736 5.89078C3.88094 5.76689 4.40491 5.69096 4.93254 5.66397H4.93423L7.39284 6.87421C7.47527 6.91485 7.57046 6.92108 7.65748 6.89153C7.7445 6.86198 7.81622 6.79908 7.85686 6.71665C7.8975 6.63423 7.90373 6.53903 7.87418 6.45202C7.84463 6.365 7.78173 6.29328 7.6993 6.25264L6.60678 5.71418C8.63077 5.95657 10.1786 6.82919 10.1786 7.83686C10.1786 9.02459 8.02824 10.0271 5.48137 10.0271Z" fill="black"/>
</svg>
