<svg width="20" height="20" viewBox="0 0 20 20" fill="none" xmlns="http://www.w3.org/2000/svg">
<path d="M9.03215 14.701C8.61227 14.701 8.20181 14.5765 7.85269 14.3432C7.50357 14.11 7.23146 13.7784 7.07078 13.3905C6.9101 13.0026 6.86806 12.5757 6.94997 12.1639C7.03189 11.7521 7.23408 11.3738 7.53098 11.0769C7.82789 10.78 8.20616 10.5778 8.61798 10.4959C9.0298 10.414 9.45665 10.456 9.84458 10.6167C10.2325 10.7774 10.5641 11.0495 10.7973 11.3986C11.0306 11.7477 11.1551 12.1582 11.1551 12.578C11.1545 13.1409 10.9306 13.6805 10.5326 14.0785C10.1346 14.4765 9.595 14.7004 9.03215 14.701ZM9.03215 11.3339C8.78608 11.3339 8.54553 11.4068 8.34092 11.5436C8.13632 11.6803 7.97685 11.8746 7.88268 12.1019C7.78851 12.3293 7.76388 12.5794 7.81188 12.8208C7.85989 13.0621 7.97839 13.2838 8.15239 13.4578C8.32639 13.6318 8.54808 13.7503 8.78942 13.7983C9.03077 13.8463 9.28093 13.8217 9.50828 13.7275C9.73562 13.6333 9.92993 13.4739 10.0666 13.2693C10.2034 13.0647 10.2763 12.8241 10.2763 12.578C10.276 12.2482 10.1448 11.9319 9.91154 11.6987C9.67828 11.4654 9.36202 11.3342 9.03215 11.3339Z" fill="black"/>
<path d="M13.8283 16.0794C13.5211 16.0794 13.2209 15.9883 12.9655 15.8176C12.7101 15.647 12.5111 15.4044 12.3936 15.1206C12.276 14.8368 12.2453 14.5246 12.3053 14.2233C12.3652 13.9221 12.5131 13.6454 12.7303 13.4282C12.9475 13.211 13.2243 13.0631 13.5255 13.0032C13.8268 12.9433 14.1391 12.9741 14.4228 13.0916C14.7066 13.2092 14.9491 13.4083 15.1198 13.6637C15.2904 13.9191 15.3814 14.2194 15.3814 14.5265C15.3809 14.9383 15.2172 15.333 14.926 15.6241C14.6348 15.9153 14.2401 16.079 13.8283 16.0794ZM13.8283 13.8522C13.695 13.8522 13.5646 13.8918 13.4538 13.9659C13.3429 14.04 13.2565 14.1453 13.2055 14.2684C13.1545 14.3916 13.1411 14.5272 13.1671 14.658C13.1932 14.7887 13.2574 14.9089 13.3517 15.0032C13.4459 15.0974 13.5661 15.1617 13.6968 15.1877C13.8276 15.2137 13.9632 15.2003 14.0864 15.1493C14.2096 15.0983 14.3149 15.0119 14.389 14.9011C14.4631 14.7902 14.5026 14.6599 14.5026 14.5265C14.5024 14.3477 14.4313 14.1763 14.3049 14.0499C14.1785 13.9235 14.0071 13.8524 13.8283 13.8522Z" fill="black"/>
<path d="M4.89346 10.6807C5.37153 10.6807 5.75908 10.2932 5.75908 9.81509C5.75908 9.33702 5.37153 8.94946 4.89346 8.94946C4.41539 8.94946 4.02783 9.33702 4.02783 9.81509C4.02783 10.2932 4.41539 10.6807 4.89346 10.6807Z" fill="black"/>
<path d="M4.19243 13.7003C4.5023 13.7003 4.75351 13.4491 4.75351 13.1392C4.75351 12.8293 4.5023 12.5781 4.19243 12.5781C3.88255 12.5781 3.63135 12.8293 3.63135 13.1392C3.63135 13.4491 3.88255 13.7003 4.19243 13.7003Z" fill="black"/>
<path d="M16.2022 12.8946C16.5121 12.8946 16.7633 12.6434 16.7633 12.3335C16.7633 12.0237 16.5121 11.7725 16.2022 11.7725C15.8923 11.7725 15.6411 12.0237 15.6411 12.3335C15.6411 12.6434 15.8923 12.8946 16.2022 12.8946Z" fill="black"/>
<path d="M17.8974 15.7862C17.8977 15.5602 17.9876 15.3435 18.1474 15.1836C18.3073 15.0238 18.524 14.9339 18.75 14.9336H19.1562L19.156 12.1605C19.156 12.1605 17.6753 8.91455 16.1076 5.47208L15.9272 5.07601L15.5446 5.28327C15.3522 5.38773 15.1327 5.43144 14.9151 5.40862C14.6716 5.38063 14.4445 5.27172 14.2702 5.09934C14.096 4.92697 13.9846 4.7011 13.9539 4.45791C13.9261 4.21789 13.9796 3.97549 14.1059 3.76948C14.2321 3.56347 14.4238 3.40575 14.6503 3.32156L15.0612 3.17022L14.0063 0.856266C13.8674 0.554861 13.6307 0.309216 13.3347 0.159153C13.0387 0.00909086 12.7006 -0.0365919 12.3754 0.0295112C7.49283 1.05519 4.23481 2.99053 2.36135 4.43341C2.02993 4.68866 1.71756 4.94768 1.43255 5.20344C1.17518 5.43557 0.9695 5.71923 0.828863 6.03601C0.688225 6.35278 0.615774 6.69559 0.616213 7.04218V9.57064H1.0224C1.37354 9.57064 1.7103 9.71013 1.95859 9.95842C2.20688 10.2067 2.34637 10.5435 2.34637 10.8946C2.34637 11.2458 2.20688 11.5825 1.95859 11.8308C1.7103 12.0791 1.37354 12.2186 1.0224 12.2186H0.616213V13.3985C0.617633 13.7089 0.718517 14.0107 0.904061 14.2596C1.0896 14.5085 1.35004 14.6914 1.64715 14.7815L19.1562 20V16.6388H18.75C18.524 16.6386 18.3073 16.5486 18.1474 16.3888C17.9876 16.229 17.8977 16.0123 17.8974 15.7862ZM18.3439 18.9104L1.8792 14.0028C1.74933 13.9635 1.63548 13.8836 1.55437 13.7748C1.47326 13.6661 1.42918 13.5342 1.42859 13.3985V12.9923C1.91589 12.8982 2.35521 12.6373 2.67113 12.2545C2.98704 11.8717 3.15984 11.3909 3.15984 10.8946C3.15984 10.3983 2.98704 9.91748 2.67113 9.5347C2.35521 9.15192 1.91589 8.89107 1.42859 8.79694V7.04218C1.42911 6.9704 1.43425 6.89873 1.44396 6.8276L11.4735 10.0762C11.5242 10.0926 11.5777 10.0989 11.6309 10.0946C11.6841 10.0904 11.7359 10.0757 11.7834 10.0515C11.8309 10.0272 11.8732 9.99381 11.9078 9.95322C11.9424 9.91262 11.9686 9.86561 11.9851 9.81486C12.0015 9.76411 12.0078 9.71062 12.0035 9.65745C11.9993 9.60428 11.9846 9.55246 11.9604 9.50495C11.9361 9.45745 11.9027 9.41518 11.8621 9.38058C11.8215 9.34598 11.7745 9.31971 11.7238 9.30327L1.74076 6.06977C1.80925 5.97431 1.88785 5.88653 1.97519 5.80796C2.24493 5.56589 2.54163 5.31996 2.85718 5.077C4.6634 3.68579 7.80997 1.81868 12.5424 0.824425C12.687 0.795246 12.8373 0.815774 12.9688 0.88268C13.1003 0.949586 13.2053 1.05895 13.2669 1.19304L13.9797 2.7565C13.605 3.00562 13.3312 3.38007 13.2075 3.81273C13.0837 4.24538 13.1181 4.70796 13.3045 5.11756C13.4908 5.52716 13.817 5.857 14.2244 6.04797C14.6319 6.23894 15.0941 6.27855 15.5281 6.1597C16.7913 8.93369 18.1035 11.8136 18.3439 12.3398V14.1714C17.9841 14.2619 17.6649 14.4699 17.4369 14.7625C17.2088 15.055 17.085 15.4153 17.085 15.7862C17.085 16.1571 17.2088 16.5174 17.4369 16.81C17.6649 17.1025 17.9841 17.3105 18.3439 17.401V18.9104Z" fill="black"/>
</svg>
