<svg width="13" height="20" viewBox="0 0 13 20" fill="none" xmlns="http://www.w3.org/2000/svg">
<path d="M5.70017 13.0346L4.16792 15.9803C4.06359 16.1809 4.14161 16.4281 4.3422 16.5324L4.3422 16.5324C4.54279 16.6368 4.78997 16.5587 4.89431 16.3581L6.42656 13.4124C6.5309 13.2118 6.45287 12.9646 6.25229 12.8603C6.0517 12.756 5.80451 12.834 5.70017 13.0346Z" fill="black"/>
<path d="M12.0053 14.6795C11.9049 14.5035 11.8087 14.3295 11.7207 14.1637C11.1454 13.0684 10.3307 11.4205 9.89056 9.75006C9.80659 9.42866 9.81479 7.46412 9.81479 7.46412C9.81482 7.25315 9.88762 7.04865 10.0209 6.88511L11.7043 4.82059C11.7859 4.72109 11.8376 4.60044 11.8533 4.4727C11.869 4.34495 11.848 4.21538 11.7929 4.09909C11.7377 3.9828 11.6507 3.88458 11.5419 3.81587C11.433 3.74717 11.3069 3.71081 11.1782 3.71105H9.50752L10.0887 1.31563C10.1561 1.05743 10.125 0.783381 10.0016 0.546785C9.9127 0.381326 9.78054 0.243102 9.61924 0.146852C9.45794 0.0506021 9.27354 -6.40929e-05 9.0857 0.000256309H7.25629L6.0843 0.000244026C5.93657 -0.00287632 5.78975 0.0239563 5.65267 0.0791235C5.5156 0.134291 5.39112 0.21665 5.28674 0.321233C5.16593 0.447112 5.07887 0.601454 5.03361 0.76995C4.98836 0.938447 4.98637 1.11564 5.02785 1.28511L5.6164 3.71104C5.57605 3.71104 5.53609 3.71899 5.49881 3.73443C5.46153 3.74987 5.42765 3.7725 5.39912 3.80103C5.37058 3.82957 5.34795 3.86344 5.33251 3.90072C5.31707 3.93801 5.30912 3.97796 5.30913 4.01832V5.23742L2.41766 5.2374C1.98835 5.23029 1.57334 5.39164 1.26156 5.68685C1.03299 5.90938 0.876648 6.19553 0.812865 6.50809C0.749082 6.82065 0.780805 7.14517 0.903909 7.43947L3.57476 13.8334C3.51599 13.9477 3.21902 14.5035 3.11866 14.6795C2.53731 15.7195 1.81262 17.0112 2.28552 18.3173C2.34195 18.4745 2.41469 18.6255 2.50253 18.7676C3.15966 19.8403 4.55985 20 5.81271 20C6.09109 20 6.36337 19.9918 6.61727 19.9836C6.96112 19.9734 8.1628 19.9734 8.50666 19.9836C9.90486 20.0225 11.8189 20.0798 12.6214 18.7676C12.7092 18.6255 12.782 18.4745 12.8384 18.3173C13.3113 17.0112 12.5866 15.7195 12.0053 14.6795ZM10.8854 4.52989L9.3207 6.44732C9.11067 6.70465 8.99595 7.02662 8.99594 7.35878V8.4747C8.99594 8.55045 8.99594 8.62414 8.99394 8.69989C8.97146 9.12234 9.00657 9.54588 9.0983 9.95887C9.22054 10.4235 9.37028 10.8845 9.53461 11.3328C9.22424 11.393 8.6235 11.4153 7.55596 11.1455C6.96639 10.9767 6.35566 10.8934 5.74243 10.8981C5.84668 10.5885 5.94254 10.2745 6.02561 9.95886C6.11733 9.54588 6.15244 9.12233 6.12996 8.69988C6.12796 8.62414 6.12796 4.52989 6.12796 4.52989H10.8854ZM5.86468 0.903469C5.88516 0.876969 5.91148 0.855564 5.9416 0.840928C5.97172 0.826293 6.00482 0.818824 6.03831 0.819105H9.0857C9.11913 0.819103 9.15212 0.826691 9.18219 0.841296C9.21226 0.855901 9.23862 0.877142 9.25929 0.903419C9.27995 0.929695 9.29438 0.96032 9.30149 0.992984C9.30859 1.02565 9.30819 1.0595 9.30031 1.09199L8.66488 3.71104H6.45903L6.35527 3.28345H7.08446C7.19304 3.28345 7.29718 3.24031 7.37396 3.16353C7.45075 3.08675 7.49388 2.98261 7.49388 2.87402C7.49388 2.76544 7.45075 2.6613 7.37396 2.58452C7.29718 2.50773 7.19304 2.4646 7.08446 2.4646H6.15666L6.0558 2.04878H7.6986C7.80718 2.04878 7.91132 2.00564 7.9881 1.92886C8.06488 1.85208 8.10802 1.74794 8.10802 1.63935C8.10802 1.53077 8.06488 1.42663 7.9881 1.34985C7.91132 1.27306 7.80718 1.22993 7.6986 1.22993H5.85719L5.8237 1.09199C5.8155 1.05954 5.81494 1.02562 5.82205 0.992915C5.82916 0.960207 5.84375 0.929591 5.86468 0.903469ZM1.65939 7.124C1.61047 7.00688 1.59125 6.87949 1.60341 6.75315C1.61557 6.6268 1.65875 6.50542 1.72911 6.39978C1.79946 6.29414 1.89482 6.2075 2.00671 6.14758C2.1186 6.08765 2.24355 6.05628 2.37048 6.05626H5.30912C5.30912 6.05626 5.30912 8.63027 5.31112 8.70806C5.33097 9.0573 5.30482 9.40763 5.23336 9.75005C4.93496 10.8201 4.54084 11.8611 4.05576 12.8604L1.65939 7.124ZM12.0687 18.0389C12.0307 18.1439 11.982 18.2447 11.9234 18.3398C11.3686 19.2467 9.79429 19.2016 8.53123 19.1648C8.17918 19.1545 6.94471 19.1545 6.59465 19.1648C5.3296 19.2016 3.75737 19.2467 3.20051 18.3398C3.14187 18.2447 3.09316 18.1439 3.05516 18.0389C2.70921 17.0849 3.30696 16.0204 3.83313 15.0808C3.93549 14.8965 4.03574 14.7184 4.1279 14.5444C4.60736 13.6461 5.03849 12.7228 5.41945 11.7784C5.51411 11.7314 5.98861 11.5935 7.35502 11.9391C7.92172 12.0944 8.50534 12.1794 9.09278 12.1924C9.34366 12.1963 9.59401 12.1679 9.83766 12.108C10.2258 13.044 10.6525 13.8907 10.996 14.5444C11.0881 14.7184 11.1884 14.8965 11.2907 15.0808C11.8169 16.0204 12.4147 17.0849 12.0687 18.0389V18.0389Z" fill="black"/>
</svg>
