<svg width="20" height="20" viewBox="0 0 20 20" fill="none" xmlns="http://www.w3.org/2000/svg">
<path d="M6.18959 20C3.78653 20 1.74566 18.7306 0.862751 16.6241C0.471562 15.6893 0.357402 14.6618 0.533877 13.664C0.710353 12.6661 1.17002 11.7401 1.85809 10.9962C3.17521 9.57843 4.83187 9.3046 6.27896 9.22369C8.63162 9.09218 10.2783 8.5434 11.4611 7.49654C11.6784 7.30375 11.8802 7.09413 12.0645 6.86961L12.1594 6.75381C12.7191 6.07005 13.298 5.36293 14.0727 4.85893C14.6061 4.52895 15.2252 4.3643 15.852 4.38575C16.3513 4.38197 16.6798 4.32229 16.9855 4.01846C17.5709 3.43683 17.4721 2.42006 17.3611 1.86567C17.2754 1.43445 17.0988 1.02642 16.8432 0.668749C16.782 0.586722 16.7531 0.485076 16.762 0.383145C16.7709 0.281213 16.817 0.186108 16.8914 0.115919L16.8999 0.108134C16.9433 0.0685254 16.9948 0.0386186 17.0507 0.0203989C17.1066 0.00217926 17.1657 -0.0039363 17.2242 0.00245826C17.2827 0.00885283 17.3391 0.0276112 17.3898 0.057488C17.4404 0.0873647 17.4841 0.127676 17.518 0.175746C17.8453 0.631328 18.0712 1.15167 18.1806 1.70182C18.4291 2.94283 18.2139 3.97612 17.5748 4.61122C17.0159 5.16663 16.3958 5.21744 15.8583 5.22152C15.3913 5.19956 14.9284 5.31728 14.5286 5.55962C13.8626 5.99281 13.3253 6.64882 12.806 7.28331L12.7105 7.39971C12.4982 7.65861 12.2657 7.90025 12.0151 8.12235C10.6839 9.30051 8.87607 9.91561 6.32549 10.0582C5.0449 10.1297 3.58555 10.3647 2.47064 11.5651C1.89167 12.1911 1.50493 12.9704 1.35653 13.81C1.20812 14.6497 1.30432 15.5143 1.63364 16.3008C2.46615 18.2874 4.53396 19.395 6.89906 19.123C9.75306 18.7951 11.7048 16.6155 13.6157 14.2173C13.9189 13.837 14.2262 13.4591 14.5337 13.081C14.9778 12.5347 15.4164 11.984 15.8494 11.4287C16.2135 10.9598 16.6546 10.5005 16.7888 9.90505C16.8713 9.48882 16.8302 9.05755 16.6706 8.66437C16.5111 8.27119 16.24 7.93326 15.8908 7.69222C15.693 7.55053 15.5143 7.38382 15.3593 7.19626C15.0251 6.79375 15.6745 6.27307 16.0112 6.67305C16.1182 6.80092 16.2409 6.91478 16.3764 7.01193C16.781 7.30027 17.1094 7.68266 17.3333 8.12614C17.5573 8.56962 17.67 9.0609 17.6619 9.55765C17.652 9.95303 17.5589 10.3419 17.3888 10.6989C17.1088 11.2007 16.7751 11.6706 16.3938 12.1005C15.9957 12.6077 15.589 13.108 15.1821 13.6082C14.8763 13.9843 14.5706 14.36 14.2694 14.738C12.3257 17.1774 10.1628 19.5893 6.99455 19.9535C6.72734 19.9843 6.45858 19.9998 6.18959 20Z" fill="#000000"/>
<path d="M2.58372 15.1701C2.57035 14.3638 2.73286 12.6897 4.17923 11.7261C4.22735 11.6933 4.28192 11.6712 4.33927 11.6613C4.39662 11.6513 4.45543 11.6538 4.51178 11.6684C4.56812 11.683 4.62069 11.7095 4.66598 11.746C4.71126 11.7826 4.74821 11.8284 4.77435 11.8804L4.78549 11.903C4.8287 11.9933 4.83752 12.0962 4.8103 12.1925C4.78307 12.2889 4.72167 12.372 4.63759 12.4263C3.5253 13.1788 3.40625 14.5183 3.4184 15.1563C3.41988 15.255 3.38519 15.3508 3.32087 15.4256C3.25656 15.5004 3.16707 15.5491 3.06932 15.5625L3.04585 15.5657C2.98888 15.5738 2.93084 15.5696 2.87561 15.5535C2.82037 15.5374 2.76919 15.5097 2.72548 15.4723C2.68177 15.4348 2.64652 15.3886 2.62208 15.3365C2.59764 15.2844 2.58456 15.2277 2.58372 15.1701Z" fill="#000000"/>
<path d="M18.9506 9.25264C18.8462 9.2651 18.741 9.23774 18.6559 9.17602C18.5708 9.1143 18.5121 9.02276 18.4916 8.91967C18.3927 8.41745 18.2 7.93839 17.9235 7.50759C17.7828 7.29207 17.6877 7.04997 17.6442 6.79626C17.6008 6.54256 17.6098 6.28263 17.6707 6.03254C17.7519 5.69315 17.9221 5.38156 18.1639 5.12986C18.2087 5.08294 18.2638 5.04708 18.3249 5.02508C18.3859 5.00308 18.4512 4.99555 18.5157 5.00308C18.5802 5.01061 18.642 5.03299 18.6963 5.06847C18.7507 5.10395 18.796 5.15156 18.8288 5.20754C18.8742 5.28766 18.8923 5.38041 18.8802 5.4717C18.8681 5.56299 18.8266 5.64785 18.7619 5.7134C18.6257 5.85667 18.5298 6.03334 18.4838 6.22556C18.4495 6.36562 18.4443 6.51123 18.4684 6.65339C18.4926 6.79556 18.5456 6.93127 18.6242 7.05216C18.9588 7.57212 19.192 8.1507 19.3115 8.75736C19.3225 8.81381 19.3217 8.87192 19.3093 8.92807C19.2968 8.98421 19.2729 9.03717 19.239 9.08365C19.2051 9.13013 19.162 9.16912 19.1124 9.1982C19.0628 9.22727 19.0077 9.24581 18.9506 9.25264Z" fill="#000000"/>
</svg>
