<svg width="14" height="20" viewBox="0 0 14 20" fill="none" xmlns="http://www.w3.org/2000/svg">
<path d="M13.2617 5.49039H7.29609V3.71642C7.29609 3.23253 7.42495 2.75736 7.66943 2.33977C7.9139 1.92217 8.26516 1.57721 8.68712 1.34033L9.70757 0.767494C9.75452 0.741137 9.79581 0.705792 9.8291 0.663476C9.86239 0.62116 9.88702 0.572701 9.90158 0.520867C9.91614 0.469033 9.92035 0.414838 9.91397 0.361378C9.90758 0.307917 9.89073 0.256237 9.86437 0.209289C9.83802 0.162341 9.80267 0.121043 9.76036 0.0877548C9.71804 0.0544663 9.66958 0.0298387 9.61775 0.0152779C9.56591 0.000717083 9.51172 -0.00349164 9.45826 0.00289201C9.4048 0.00927565 9.35312 0.0261266 9.30617 0.0524829L8.28562 0.625405C7.73677 0.933507 7.27987 1.38221 6.96188 1.92538C6.64389 2.46856 6.47628 3.08662 6.47629 3.71603V5.49039H0.510488C0.401775 5.49039 0.297515 5.53358 0.220644 5.61045C0.143772 5.68732 0.100586 5.79158 0.100586 5.9003C0.100586 6.00901 0.143772 6.11327 0.220644 6.19014C0.297515 6.26701 0.401775 6.3102 0.510488 6.3102H0.780187L1.93354 17.9687C1.98692 18.5258 2.24643 19.0429 2.6612 19.4187C3.07598 19.7944 3.61612 20.0017 4.17579 20H9.59659C10.1562 20.0016 10.6963 19.7943 11.1111 19.4186C11.5258 19.0428 11.7854 18.5258 11.8388 17.9687L12.9922 6.3102H13.2617C13.3704 6.3102 13.4747 6.26701 13.5515 6.19014C13.6284 6.11327 13.6716 6.00901 13.6716 5.9003C13.6716 5.79158 13.6284 5.68732 13.5515 5.61045C13.4747 5.53358 13.3704 5.49039 13.2617 5.49039H13.2617ZM2.00129 10.3261C2.03881 10.3245 2.07624 10.3205 2.11387 10.3205C2.78005 10.3201 3.42182 10.5711 3.91085 11.0235C4.39988 11.4759 4.70013 12.0962 4.75154 12.7604C4.80295 13.4246 4.60174 14.0837 4.18815 14.6059C3.77456 15.1281 3.17907 15.475 2.52077 15.5771L2.00129 10.3261ZM11.3687 14.3937H9.00315C8.89444 14.3937 8.79018 14.4368 8.7133 14.5137C8.63643 14.5906 8.59325 14.6948 8.59325 14.8036C8.59325 14.9123 8.63643 15.0165 8.7133 15.0934C8.79018 15.1703 8.89444 15.2135 9.00315 15.2135H11.2876L11.2077 16.0217H9.618C9.50929 16.0217 9.40503 16.0648 9.32816 16.1417C9.25129 16.2186 9.2081 16.3228 9.2081 16.4316C9.2081 16.5403 9.25129 16.6445 9.32816 16.7214C9.40503 16.7983 9.50929 16.8415 9.618 16.8415H11.1265L11.023 17.8878C10.989 18.2422 10.8239 18.5712 10.5601 18.8102C10.2962 19.0493 9.95262 19.1812 9.59659 19.1802H4.17579C3.81974 19.1813 3.47612 19.0494 3.21225 18.8103C2.94839 18.5712 2.7833 18.2423 2.74933 17.8878L2.60143 16.3932C3.46935 16.2703 4.25838 15.8228 4.8094 15.1411C5.36041 14.4593 5.63242 13.594 5.57057 12.7196C5.50872 11.8452 5.1176 11.0268 4.47611 10.4294C3.83461 9.83206 2.99045 9.50015 2.11387 9.50065C2.04922 9.50065 1.98498 9.5068 1.92053 9.51037L1.60399 6.3102H12.1684L11.3687 14.3937Z" fill="black"/>
</svg>
