<svg width="53" height="11" viewBox="0 0 53 11" fill="none" xmlns="http://www.w3.org/2000/svg">
<path d="M8.63474 5.27273C8.63474 2.24893 6.82508 0.416193 4.37835 0.416193C1.92238 0.416193 0.11734 2.24893 0.11734 5.27273C0.11734 8.2919 1.92238 10.1293 4.37835 10.1293C6.82508 10.1293 8.63474 8.29652 8.63474 5.27273ZM7.2221 5.27273C7.2221 7.57635 6.00335 8.82741 4.37835 8.82741C2.74873 8.82741 1.5346 7.57635 1.5346 5.27273C1.5346 2.96911 2.74873 1.71804 4.37835 1.71804C6.00335 1.71804 7.2221 2.96911 7.2221 5.27273ZM9.50324 10H10.9297V6.42223H12.8687C12.901 6.42223 12.9287 6.42223 12.961 6.42223L14.8814 10H16.5064L14.4106 6.17294C15.5693 5.74361 16.1463 4.77876 16.1463 3.50923C16.1463 1.76882 15.0661 0.545454 12.8733 0.545454H9.50324V10ZM10.9297 5.19425V1.76882H12.7209C14.1289 1.76882 14.7106 2.43821 14.7106 3.50923C14.7106 4.57564 14.1289 5.19425 12.7394 5.19425H10.9297ZM23.3706 3.53232H24.834C24.5155 1.69034 22.9412 0.416193 20.9008 0.416193C18.454 0.416193 16.6675 2.25817 16.6675 5.27734C16.6675 8.26882 18.4033 10.1293 20.9654 10.1293C23.2598 10.1293 24.8986 8.62429 24.8986 6.23757V5.16193H21.1824V6.33913H23.5183C23.486 7.86257 22.4796 8.82741 20.9654 8.82741C19.2988 8.82741 18.0847 7.56712 18.0847 5.26811C18.0847 2.97834 19.3081 1.71804 20.91 1.71804C22.1657 1.71804 23.0151 2.41051 23.3706 3.53232ZM26.3061 10L27.174 7.49787H30.8672L31.7305 10H33.2447L29.8423 0.545454H28.1942L24.7919 10H26.3061ZM27.5895 6.29758L28.9837 2.26278H29.0575L30.4517 6.29758H27.5895ZM41.331 0.545454H39.9184V7.48864H39.8307L35.0203 0.545454H33.7V10H35.1265V3.06605H35.2142L40.02 10H41.331V0.545454ZM43.9284 0.545454H42.5019V10H43.9284V0.545454ZM52.9484 3.62003C52.6253 1.59801 51.0418 0.416193 49.0429 0.416193C46.5962 0.416193 44.7911 2.24893 44.7911 5.27273C44.7911 8.29652 46.5869 10.1293 49.0429 10.1293C51.1203 10.1293 52.6391 8.82741 52.9484 6.95774L51.5081 6.95312C51.2634 8.16264 50.2478 8.82741 49.0521 8.82741C47.4318 8.82741 46.2084 7.58558 46.2084 5.27273C46.2084 2.97834 47.4271 1.71804 49.0568 1.71804C50.2617 1.71804 51.2727 2.39666 51.5081 3.62003H52.9484Z" fill="#0C3928"/>
</svg>
