<svg width="42" height="30" viewBox="0 0 42 30" fill="none" xmlns="http://www.w3.org/2000/svg">
<path d="M19.1037 0.363636H16.6548V7.68182H16.5526L11.5298 0.363636H9.37074V12H11.831V4.67614H11.9162L16.9787 12H19.1037V0.363636ZM31.8295 6.18182C31.8295 2.375 29.4659 0.204545 26.3807 0.204545C23.2784 0.204545 20.9318 2.375 20.9318 6.18182C20.9318 9.97159 23.2784 12.1591 26.3807 12.1591C29.4659 12.1591 31.8295 9.98864 31.8295 6.18182ZM29.3352 6.18182C29.3352 8.64773 28.1648 9.98295 26.3807 9.98295C24.5909 9.98295 23.4261 8.64773 23.4261 6.18182C23.4261 3.71591 24.5909 2.38068 26.3807 2.38068C28.1648 2.38068 29.3352 3.71591 29.3352 6.18182ZM6.72159 19.2273C6.30114 17.9886 5.35795 17.1591 3.63068 17.1591C1.78977 17.1591 0.426136 18.2045 0.426136 19.6818C0.426136 20.8864 1.14205 21.6932 2.74432 22.0682L4.19886 22.4091C5.07955 22.6136 5.49432 23.0341 5.49432 23.6364C5.49432 24.3864 4.69886 25 3.44886 25C2.35227 25 1.66477 24.5284 1.42614 23.5909L0.153409 23.9091C0.465909 25.392 1.6875 26.1818 3.47159 26.1818C5.5 26.1818 6.88068 25.0739 6.88068 23.5682C6.88068 22.3523 6.11932 21.5852 4.5625 21.2045L3.26705 20.8864C2.23295 20.6307 1.76705 20.2841 1.76705 19.6136C1.76705 18.8636 2.5625 18.3182 3.63068 18.3182C4.80114 18.3182 5.28409 18.9659 5.51705 19.5682L6.72159 19.2273ZM14.3991 22.4318C14.3991 24.0682 13.1491 24.8182 12.1491 24.8182C11.0355 24.8182 10.2401 24 10.2401 22.7273V17.2727H8.89915V22.8182C8.89915 25.0455 10.081 26.1136 11.7173 26.1136C13.0355 26.1136 13.8991 25.4091 14.3082 24.5227H14.3991V26H15.7401V17.2727H14.3991V22.4318ZM21.7188 29.4545C23.8097 29.4545 25.4915 28.5 25.4915 26.25V17.2727H24.196V18.6591H24.0597C23.7642 18.2045 23.2188 17.1591 21.5142 17.1591C19.3097 17.1591 17.7869 18.9091 17.7869 21.5909C17.7869 24.3182 19.3778 25.8636 21.4915 25.8636C23.196 25.8636 23.7415 24.8636 24.0369 24.3864H24.1506V26.1591C24.1506 27.6136 23.1278 28.2727 21.7188 28.2727C20.1335 28.2727 19.5767 27.4375 19.2188 26.9545L18.1506 27.7045C18.696 28.6193 19.7699 29.4545 21.7188 29.4545ZM21.6733 24.6591C19.9915 24.6591 19.1278 23.3864 19.1278 21.5682C19.1278 19.7955 19.9688 18.3636 21.6733 18.3636C23.3097 18.3636 24.1733 19.6818 24.1733 21.5682C24.1733 23.5 23.2869 24.6591 21.6733 24.6591ZM30.5142 26.2045C32.0369 26.2045 32.8324 25.3864 33.1051 24.8182H33.1733V26H34.5142V20.25C34.5142 17.4773 32.4006 17.1591 31.2869 17.1591C29.9688 17.1591 28.4688 17.6136 27.7869 19.2045L29.0597 19.6591C29.3551 19.0227 30.054 18.3409 31.3324 18.3409C32.5653 18.3409 33.1733 18.9943 33.1733 20.1136V20.1591C33.1733 20.8068 32.5142 20.75 30.9233 20.9545C29.304 21.1648 27.5369 21.5227 27.5369 23.5227C27.5369 25.2273 28.8551 26.2045 30.5142 26.2045ZM30.7188 25C29.6506 25 28.8778 24.5227 28.8778 23.5909C28.8778 22.5682 29.8097 22.25 30.8551 22.1136C31.4233 22.0455 32.946 21.8864 33.1733 21.6136V22.8409C33.1733 23.9318 32.3097 25 30.7188 25ZM36.9616 26H38.3026V20.4773C38.3026 19.2955 39.2344 18.4318 40.5071 18.4318C40.8651 18.4318 41.2344 18.5 41.3253 18.5227V17.1591C41.1719 17.1477 40.8196 17.1364 40.6207 17.1364C39.5753 17.1364 38.6662 17.7273 38.348 18.5909H38.2571V17.2727H36.9616V26Z" fill="#0C3928"/>
</svg>
