<svg width="45" height="22" viewBox="0 0 45 22" fill="none" xmlns="http://www.w3.org/2000/svg">
<path d="M0.968418 21.25H1.89029V18.0781H1.96842C2.17154 18.4062 2.56217 19.125 3.71842 19.125C5.21842 19.125 6.26529 17.9219 6.26529 16.0156C6.26529 14.125 5.21842 12.9219 3.70279 12.9219C2.53092 12.9219 2.17154 13.6406 1.96842 13.9531H1.85904V13H0.968418V21.25ZM1.87467 16C1.87467 14.6562 2.46842 13.75 3.59342 13.75C4.76529 13.75 5.34342 14.7344 5.34342 16C5.34342 17.2812 4.74967 18.2969 3.59342 18.2969C2.48404 18.2969 1.87467 17.3594 1.87467 16ZM6.90154 19H7.82342V15.2031C7.82342 14.3906 8.46404 13.7969 9.33904 13.7969C9.58514 13.7969 9.83904 13.8438 9.90154 13.8594V12.9219C9.79607 12.9141 9.55389 12.9062 9.41717 12.9062C8.69842 12.9062 8.07342 13.3125 7.85467 13.9062H7.79217V13H6.90154V19ZM12.4792 19.125C14.1042 19.125 15.1979 17.8906 15.1979 16.0312C15.1979 14.1562 14.1042 12.9219 12.4792 12.9219C10.8542 12.9219 9.76045 14.1562 9.76045 16.0312C9.76045 17.8906 10.8542 19.125 12.4792 19.125ZM12.4792 18.2969C11.2448 18.2969 10.6823 17.2344 10.6823 16.0312C10.6823 14.8281 11.2448 13.75 12.4792 13.75C13.7136 13.75 14.2761 14.8281 14.2761 16.0312C14.2761 17.2344 13.7136 18.2969 12.4792 18.2969ZM15.9602 19H16.8508V18.0781H16.9602C17.1633 18.4062 17.5539 19.125 18.7102 19.125C20.2102 19.125 21.2571 17.9219 21.2571 16.0156C21.2571 14.125 20.2102 12.9219 18.6946 12.9219C17.5227 12.9219 17.1633 13.6406 16.9602 13.9531H16.8821V11H15.9602V19ZM16.8664 16C16.8664 14.6562 17.4602 13.75 18.5852 13.75C19.7571 13.75 20.3352 14.7344 20.3352 16C20.3352 17.2812 19.7414 18.2969 18.5852 18.2969C17.4758 18.2969 16.8664 17.3594 16.8664 16ZM21.8972 19H22.8191V13H21.8972V19ZM22.366 12C22.7253 12 23.0222 11.7188 23.0222 11.375C23.0222 11.0313 22.7253 10.75 22.366 10.75C22.0066 10.75 21.7097 11.0313 21.7097 11.375C21.7097 11.7188 22.0066 12 22.366 12ZM26.1751 19.125C27.8001 19.125 28.8938 17.8906 28.8938 16.0312C28.8938 14.1562 27.8001 12.9219 26.1751 12.9219C24.5501 12.9219 23.4563 14.1562 23.4563 16.0312C23.4563 17.8906 24.5501 19.125 26.1751 19.125ZM26.1751 18.2969C24.9407 18.2969 24.3782 17.2344 24.3782 16.0312C24.3782 14.8281 24.9407 13.75 26.1751 13.75C27.4094 13.75 27.9719 14.8281 27.9719 16.0312C27.9719 17.2344 27.4094 18.2969 26.1751 18.2969ZM32.1404 13H30.8592V11.5625H29.9373V13H29.031V13.7812H29.9373V17.5312C29.9373 18.5781 30.781 19.0781 31.5623 19.0781C31.906 19.0781 32.1248 19.0156 32.2498 18.9687L32.0623 18.1406C31.9842 18.1562 31.8592 18.1875 31.656 18.1875C31.2498 18.1875 30.8592 18.0625 30.8592 17.2812V13.7812H32.1404V13ZM32.7571 19H33.679V13H32.7571V19ZM33.2259 12C33.5853 12 33.8821 11.7188 33.8821 11.375C33.8821 11.0313 33.5853 10.75 33.2259 10.75C32.8665 10.75 32.5696 11.0313 32.5696 11.375C32.5696 11.7188 32.8665 12 33.2259 12ZM37.035 19.125C38.3631 19.125 39.2381 18.3125 39.3944 17.25H38.4725C38.3006 17.9062 37.7537 18.2969 37.035 18.2969C35.9412 18.2969 35.2381 17.3906 35.2381 16C35.2381 14.6406 35.9569 13.75 37.035 13.75C37.8475 13.75 38.3319 14.25 38.4725 14.7969H39.3944C39.2381 13.6719 38.285 12.9219 37.0194 12.9219C35.3944 12.9219 34.3162 14.2031 34.3162 16.0312C34.3162 17.8281 35.3475 19.125 37.035 19.125ZM44.222 14.3437C43.9329 13.4922 43.2845 12.9219 42.097 12.9219C40.8314 12.9219 39.8939 13.6406 39.8939 14.6562C39.8939 15.4844 40.3861 16.0391 41.4876 16.2969L42.4876 16.5312C43.0931 16.6719 43.3783 16.9609 43.3783 17.375C43.3783 17.8906 42.8314 18.3125 41.972 18.3125C41.2181 18.3125 40.7454 17.9883 40.5814 17.3437L39.7064 17.5625C39.9212 18.582 40.7611 19.125 41.9876 19.125C43.3822 19.125 44.3314 18.3633 44.3314 17.3281C44.3314 16.4922 43.8079 15.9648 42.7376 15.7031L41.847 15.4844C41.1361 15.3086 40.8158 15.0703 40.8158 14.6094C40.8158 14.0937 41.3626 13.7187 42.097 13.7187C42.9017 13.7187 43.2337 14.1641 43.3939 14.5781L44.222 14.3437Z" fill="#0C3928"/>
<path d="M2.72881 9H4.42022V5.69531H7.85381V9H9.54131V1H7.85381V4.30078H4.42022V1H2.72881V9ZM12.3522 1H10.6608V9H12.3522V1ZM18.7735 3.58594H20.4923C20.2735 2.00391 18.879 0.890625 17.0704 0.890625C14.9571 0.890625 13.3282 2.41406 13.3282 5.00781C13.3282 7.53906 14.8517 9.10937 17.1056 9.10937C19.1251 9.10937 20.5665 7.83203 20.5665 5.72656V4.71875H17.2188V5.99219H18.9376C18.9142 6.98437 18.2384 7.61328 17.1134 7.61328C15.8438 7.61328 15.0431 6.66406 15.0431 4.99219C15.0431 3.32812 15.8751 2.38672 17.0978 2.38672C17.9688 2.38672 18.5587 2.83594 18.7735 3.58594ZM21.562 9H23.2534V5.69531H26.687V9H28.3745V1H26.687V4.30078H23.2534V1H21.562V9ZM33.4563 1H31.7649V9H33.4563V1ZM41.2644 1H39.5808V6.03125H39.5105L36.0573 1H34.573V9H36.2644V3.96484H36.323L39.8034 9H41.2644V1Z" fill="#0C3928"/>
</svg>
