<svg width="18" height="24" viewBox="0 0 18 24" fill="none" xmlns="http://www.w3.org/2000/svg">
<path d="M3.18045 23.5H14.8195C16.5789 23.5 18 22.2299 18 20.6507V20.6164L16.6805 5.40896C16.6805 5.23731 16.5113 5.1 16.3421 5.1H13.297V4.8597C13.297 2.45672 11.3684 0.5 9 0.5C6.63158 0.5 4.70301 2.45672 4.70301 4.8597V5.1H1.65789C1.48872 5.1 1.31955 5.23731 1.31955 5.40896L0 20.6164V20.6507C0 22.2299 1.42105 23.5 3.18045 23.5ZM5.3797 4.8597C5.3797 2.83433 7.00376 1.18657 9 1.18657C10.9962 1.18657 12.6203 2.83433 12.6203 4.8597V5.1H5.3797V4.8597ZM1.96241 5.78657H4.70301V8.05224C4.70301 8.25821 4.87218 8.39552 5.04135 8.39552C5.21053 8.39552 5.3797 8.22388 5.3797 8.05224V5.78657H12.6203V8.05224C12.6203 8.25821 12.7895 8.39552 12.9586 8.39552C13.1278 8.39552 13.297 8.22388 13.297 8.05224V5.78657H16.0376L17.3571 20.6851C17.3571 21.8522 16.2406 22.8134 14.8534 22.8134H3.18045C1.79323 22.8134 0.676692 21.8522 0.676692 20.6851L1.96241 5.78657Z" fill="black"/>
</svg>
