<svg width="24" height="22" viewBox="0 0 24 22" fill="none" xmlns="http://www.w3.org/2000/svg">
<path d="M11.7378 21.3557C11.8101 21.4278 11.9186 21.5 12.0271 21.5C12.1356 21.5 12.208 21.4639 12.2803 21.3918L22.0829 11.6134C23.3127 10.3866 24 8.76289 24 7.03093C24 5.29897 23.3127 3.67526 22.1191 2.44845C20.8892 1.22165 19.2615 0.536083 17.5252 0.536083C15.789 0.536083 14.1613 1.22165 12.9314 2.44845L12.0271 3.35052L11.0867 2.41237C9.85682 1.18557 8.22909 0.5 6.49284 0.5C4.75659 0.5 3.12886 1.18557 1.89902 2.37629C-0.633007 4.90206 -0.633007 9.01546 1.89902 11.5412L11.7378 21.3557ZM2.4416 2.91753C3.52675 1.83505 4.97363 1.22165 6.49284 1.22165C8.04823 1.25773 9.4951 1.83505 10.5803 2.95361L11.7739 4.14433C11.9186 4.28866 12.1356 4.28866 12.2803 4.14433L13.4378 2.98969C14.523 1.90722 15.9699 1.29381 17.5252 1.29381C19.0445 1.29381 20.4913 1.90722 21.5765 2.98969C22.6616 4.07217 23.2766 5.51546 23.2766 7.06701C23.2766 8.58247 22.6616 10.0258 21.5765 11.1443L12.0271 20.5979L2.4416 11.0361C0.198945 8.79897 0.198945 5.15464 2.4416 2.91753Z" fill="black"/>
</svg>
