<svg width="158" height="60" viewBox="0 0 158 60" fill="none" xmlns="http://www.w3.org/2000/svg">
<path d="M9.331 27.053L8.742 27.859C8.53533 27.611 8.17367 27.363 7.657 27.115C7.161 26.867 6.65467 26.743 6.138 26.743C5.62133 26.743 5.146 26.9083 4.712 27.239C4.29867 27.5697 4.092 28.045 4.092 28.665C4.092 29.285 4.23667 29.7397 4.526 30.029C4.836 30.2977 5.28033 30.5353 5.859 30.742C6.43767 30.928 6.90267 31.1037 7.254 31.269C7.60533 31.4137 7.998 31.6307 8.432 31.92C9.34133 32.478 9.796 33.2323 9.796 34.183C9.796 35.1337 9.47567 35.9707 8.835 36.694C8.215 37.3967 7.316 37.748 6.138 37.748C4.526 37.748 3.33767 37.2623 2.573 36.291L3.255 35.454C3.54433 35.8467 3.98867 36.167 4.588 36.415C5.208 36.663 5.77633 36.7663 6.293 36.725C6.83033 36.6837 7.35733 36.4667 7.874 36.074C8.39067 35.6813 8.649 35.113 8.649 34.369C8.649 33.377 8.08067 32.664 6.944 32.23C6.696 32.1267 6.45833 32.044 6.231 31.982L5.487 31.734C5.21833 31.6307 5.04267 31.5687 4.96 31.548C4.898 31.5273 4.743 31.4653 4.495 31.362C4.26767 31.238 4.10233 31.145 3.999 31.083C3.91633 31.0003 3.79233 30.8867 3.627 30.742C3.46167 30.5767 3.348 30.4113 3.286 30.246C3.07933 29.7913 2.976 29.347 2.976 28.913C2.976 27.921 3.29633 27.146 3.937 26.588C4.59833 26.0093 5.35267 25.72 6.2 25.72C7.502 25.72 8.54567 26.1643 9.331 27.053ZM22.5566 37.5H21.2546L16.5736 31.114L14.2176 33.315V37.5H13.0706V14.25H14.1866V31.858L21.1306 25.41L21.8126 26.154L17.3796 30.339L22.5566 37.5ZM27.3267 37.5H26.2107V14.25H27.3267V37.5ZM42.2513 37.5H41.1043V35.64L41.1973 34.245C40.7633 35.299 40.0916 36.1567 39.1823 36.818C38.273 37.4587 37.2293 37.779 36.0513 37.779C34.3773 37.779 32.9513 37.19 31.7733 36.012C30.5953 34.8133 30.0063 33.3873 30.0063 31.734C30.0063 30.06 30.5953 28.634 31.7733 27.456C32.9513 26.2573 34.3773 25.658 36.0513 25.658C37.25 25.658 38.2833 25.968 39.1513 26.588C40.0193 27.208 40.6703 28.0347 41.1043 29.068L41.2593 25.875H42.2513V37.5ZM31.1533 31.703C31.1533 33.129 31.608 34.3277 32.5173 35.299C33.4473 36.2703 34.6253 36.756 36.0513 36.756C37.498 36.756 38.676 36.2703 39.5853 35.299C40.5153 34.3277 40.9803 33.129 40.9803 31.703C40.9803 30.2563 40.5153 29.0577 39.5853 28.107C38.676 27.1563 37.498 26.681 36.0513 26.681C34.6253 26.681 33.4473 27.1563 32.5173 28.107C31.608 29.0577 31.1533 30.2563 31.1533 31.703ZM58.2054 37.5H57.0584V35.64L57.1514 34.245C56.7174 35.299 56.0457 36.1567 55.1364 36.818C54.2271 37.4587 53.1834 37.779 52.0054 37.779C50.3314 37.779 48.9054 37.19 47.7274 36.012C46.5494 34.8133 45.9604 33.3873 45.9604 31.734C45.9604 30.06 46.5494 28.634 47.7274 27.456C48.9054 26.2573 50.3314 25.658 52.0054 25.658C53.2041 25.658 54.2374 25.968 55.1054 26.588C55.9734 27.208 56.6244 28.0347 57.0584 29.068V14.25H58.2054V37.5ZM47.1074 31.703C47.1074 33.129 47.5621 34.3277 48.4714 35.299C49.4014 36.2703 50.5794 36.756 52.0054 36.756C53.4521 36.756 54.6301 36.2703 55.5394 35.299C56.4694 34.3277 56.9344 33.129 56.9344 31.703C56.9344 30.2563 56.4694 29.0577 55.5394 28.107C54.6301 27.1563 53.4521 26.681 52.0054 26.681C50.5794 26.681 49.4014 27.1563 48.4714 28.107C47.5621 29.0577 47.1074 30.2563 47.1074 31.703ZM72.7849 31.703C72.7849 33.377 72.1959 34.8133 71.0179 36.012C69.8399 37.19 68.4035 37.779 66.7089 37.779C65.0349 37.779 63.6089 37.19 62.4309 36.012C61.2529 34.8133 60.6639 33.3873 60.6639 31.734C60.6639 30.06 61.2529 28.634 62.4309 27.456C63.6089 26.2573 65.0349 25.658 66.7089 25.658C68.4035 25.658 69.8399 26.247 71.0179 27.425C72.1959 28.603 72.7849 30.029 72.7849 31.703ZM61.8109 31.703C61.8109 33.129 62.2655 34.3277 63.1749 35.299C64.1049 36.2703 65.2829 36.756 66.7089 36.756C68.1555 36.756 69.3335 36.2703 70.2429 35.299C71.1729 34.3277 71.6379 33.129 71.6379 31.703C71.6379 30.2563 71.1729 29.0577 70.2429 28.107C69.3335 27.1563 68.1555 26.681 66.7089 26.681C65.2829 26.681 64.1049 27.1563 63.1749 28.107C62.2655 29.0577 61.8109 30.2563 61.8109 31.703ZM81.1062 35.888L86.1282 25.875H87.3372L81.1062 38.213L74.8752 25.875H76.0842L81.1062 35.888ZM91.7176 37.5H90.5706V25.875H91.7176V37.5ZM92.2446 21.38C92.2446 21.6487 92.1413 21.876 91.9346 22.062C91.7486 22.248 91.5213 22.341 91.2526 22.341C91.0046 22.341 90.7773 22.248 90.5706 22.062C90.3846 21.876 90.2916 21.6487 90.2916 21.38C90.2916 21.0907 90.395 20.853 90.6016 20.667C90.8083 20.4603 91.0356 20.357 91.2836 20.357C91.5316 20.357 91.7486 20.4603 91.9346 20.667C92.1413 20.853 92.2446 21.0907 92.2446 21.38ZM112.503 27.053L111.914 27.859C111.707 27.611 111.346 27.363 110.829 27.115C110.333 26.867 109.827 26.743 109.31 26.743C108.793 26.743 108.318 26.9083 107.884 27.239C107.471 27.5697 107.264 28.045 107.264 28.665C107.264 29.285 107.409 29.7397 107.698 30.029C108.008 30.2977 108.452 30.5353 109.031 30.742C109.61 30.928 110.075 31.1037 110.426 31.269C110.777 31.4137 111.17 31.6307 111.604 31.92C112.513 32.478 112.968 33.2323 112.968 34.183C112.968 35.1337 112.648 35.9707 112.007 36.694C111.387 37.3967 110.488 37.748 109.31 37.748C107.698 37.748 106.51 37.2623 105.745 36.291L106.427 35.454C106.716 35.8467 107.161 36.167 107.76 36.415C108.38 36.663 108.948 36.7663 109.465 36.725C110.002 36.6837 110.529 36.4667 111.046 36.074C111.563 35.6813 111.821 35.113 111.821 34.369C111.821 33.377 111.253 32.664 110.116 32.23C109.868 32.1267 109.63 32.044 109.403 31.982L108.659 31.734C108.39 31.6307 108.215 31.5687 108.132 31.548C108.07 31.5273 107.915 31.4653 107.667 31.362C107.44 31.238 107.274 31.145 107.171 31.083C107.088 31.0003 106.964 30.8867 106.799 30.742C106.634 30.5767 106.52 30.4113 106.458 30.246C106.251 29.7913 106.148 29.347 106.148 28.913C106.148 27.921 106.468 27.146 107.109 26.588C107.77 26.0093 108.525 25.72 109.372 25.72C110.674 25.72 111.718 26.1643 112.503 27.053ZM127.247 37.5H126.1V29.13C126.059 28.448 125.801 27.8797 125.325 27.425C124.85 26.9703 124.158 26.7223 123.248 26.681C121.884 26.681 120.706 27.0943 119.714 27.921C118.722 28.7477 118.226 29.781 118.226 31.021V37.5H117.079V14.25H118.226V29.006C118.66 27.9933 119.311 27.1873 120.179 26.588C121.068 25.9887 122.091 25.689 123.248 25.689C124.426 25.6683 125.377 25.9783 126.1 26.619C126.824 27.2597 127.206 28.0967 127.247 29.13V37.5ZM141.324 31.703C141.324 33.377 140.735 34.8133 139.557 36.012C138.379 37.19 136.943 37.779 135.248 37.779C133.574 37.779 132.148 37.19 130.97 36.012C129.792 34.8133 129.203 33.3873 129.203 31.734C129.203 30.06 129.792 28.634 130.97 27.456C132.148 26.2573 133.574 25.658 135.248 25.658C136.943 25.658 138.379 26.247 139.557 27.425C140.735 28.603 141.324 30.029 141.324 31.703ZM130.35 31.703C130.35 33.129 130.805 34.3277 131.714 35.299C132.644 36.2703 133.822 36.756 135.248 36.756C136.695 36.756 137.873 36.2703 138.782 35.299C139.712 34.3277 140.177 33.129 140.177 31.703C140.177 30.2563 139.712 29.0577 138.782 28.107C137.873 27.1563 136.695 26.681 135.248 26.681C133.822 26.681 132.644 27.1563 131.714 28.107C130.805 29.0577 130.35 30.2563 130.35 31.703ZM143.575 45.25V25.875H144.598L144.722 29.037C145.156 28.0037 145.807 27.177 146.675 26.557C147.543 25.937 148.576 25.627 149.775 25.627C151.449 25.627 152.875 26.2263 154.053 27.425C155.231 28.603 155.82 30.0187 155.82 31.672C155.82 33.3253 155.231 34.7513 154.053 35.95C152.875 37.128 151.449 37.717 149.775 37.717C148.576 37.717 147.543 37.407 146.675 36.787C145.807 36.167 145.156 35.3403 144.722 34.307V45.25H143.575ZM144.846 31.672C144.846 33.098 145.301 34.2967 146.21 35.268C147.14 36.2393 148.318 36.725 149.744 36.725C151.191 36.725 152.369 36.2393 153.278 35.268C154.208 34.2967 154.673 33.098 154.673 31.672C154.673 30.2253 154.208 29.0267 153.278 28.076C152.369 27.1253 151.191 26.65 149.744 26.65C148.318 26.65 147.14 27.1253 146.21 28.076C145.301 29.0267 144.846 30.2253 144.846 31.672Z" fill="black"/>
</svg>
