<svg width="34" height="34" viewBox="0 0 34 34" fill="none" xmlns="http://www.w3.org/2000/svg">
<path d="M17 0C7.61194 0 0 7.61194 0 17C0 26.3881 7.61194 34 17 34C26.3881 34 34 26.3881 34 17C34 7.61194 26.3881 0 17 0ZM17 32.9851C8.17015 32.9851 1.01493 25.8299 1.01493 17C1.01493 8.17015 8.17015 1.01493 17 1.01493C25.8299 1.01493 32.9851 8.17015 32.9851 17C32.9851 25.8299 25.8299 32.9851 17 32.9851ZM18.6239 12.6866L14.3104 17L18.6239 21.3134C18.8269 21.5164 18.8269 21.8209 18.6239 22.0239C18.5224 22.1254 18.3701 22.1761 18.2687 22.1761C18.1672 22.1761 18.0149 22.1761 17.9134 22.0746L13.194 17.3552C13.0925 17.2537 13.0418 17.1522 13.0418 17C13.0418 16.8478 13.0925 16.7463 13.194 16.6448L17.9134 11.9254C18.1164 11.7224 18.4209 11.7224 18.6239 11.9254C18.8269 12.1284 18.8269 12.4836 18.6239 12.6866Z" fill="black"/>
</svg>
