<svg width="34" height="34" viewBox="0 0 34 34" fill="none" xmlns="http://www.w3.org/2000/svg">
<path d="M17 0C26.3881 0 34 7.61194 34 17C34 26.3881 26.3881 34 17 34C7.61194 34 0 26.3881 0 17C0 7.61194 7.61194 0 17 0ZM17 32.9851C25.8299 32.9851 32.9851 25.8299 32.9851 17C32.9851 8.17015 25.8299 1.01493 17 1.01493C8.17015 1.01493 1.01493 8.17015 1.01493 17C1.01493 25.8299 8.17015 32.9851 17 32.9851ZM15.3761 12.6866L19.6896 17L15.3761 21.3134C15.1731 21.5164 15.1731 21.8209 15.3761 22.0239C15.4776 22.1254 15.6299 22.1761 15.7313 22.1761C15.8328 22.1761 15.9851 22.1761 16.0866 22.0746L20.806 17.3552C20.9075 17.2537 20.9582 17.1522 20.9582 17C20.9582 16.8478 20.9075 16.7463 20.806 16.6448L16.0866 11.9254C15.8836 11.7224 15.5791 11.7224 15.3761 11.9254C15.1731 12.1284 15.1731 12.4836 15.3761 12.6866Z" fill="black"/>
</svg>
