<svg width="24" height="24" viewBox="0 0 24 24" fill="none" xmlns="http://www.w3.org/2000/svg">
<path d="M12 0C5.39286 0 0 5.39286 0 12C0 18.6071 5.39286 24 12 24C18.6071 24 24 18.6071 24 12C24 5.39286 18.6071 0 12 0ZM20.1429 19.7857C18.1071 21.9286 15.2143 23.25 12 23.25C8.96429 23.25 6.17857 22.0357 4.14286 20.0714C4.03571 18.6786 4.5 17.8571 5.42857 17.6071C7 17.2143 8.14286 16.75 8.92857 16.2857C9.57143 17.3929 10.75 18.0714 12.0357 18.0714C13.3571 18.0714 14.5714 17.3571 15.1786 16.2143C15.9643 16.6786 17.1071 17.1786 18.7857 17.6071C20.0714 17.9286 20.1786 18.8571 20.1071 19.7143C20.1071 19.75 20.1071 19.7857 20.1429 19.7857ZM12 14.7857C12.0357 14.7857 12.0714 14.7857 12.0714 14.7857H12.1071H12.1429C12.6786 14.7857 13.1429 14.6786 13.6071 14.5357C13.7143 14.8571 14 15.3214 14.6429 15.8214C14.1429 16.7857 13.1786 17.3929 12.1071 17.3929C11.0714 17.3929 10.1071 16.8214 9.60714 15.9286C10.3214 15.4286 10.6071 14.9286 10.75 14.6071C11.0714 14.7143 11.5 14.7857 12 14.7857ZM9.64286 13.0714C8.21429 11.4643 8.5 8.42857 8.53571 8.39286C8.53571 8.39286 8.53571 8.39286 8.53571 8.35714C8.67857 4.96429 11.2143 4.71429 11.9643 4.71429C12 4.71429 12.0357 4.71429 12.0357 4.71429H12.0714C12.0714 4.71429 12.1071 4.71429 12.1429 4.71429C12.8929 4.71429 15.4286 4.96429 15.5714 8.35714C15.5714 8.35714 15.5714 8.35714 15.5714 8.39286C15.5714 8.42857 15.8929 11.4643 14.4643 13.0714C13.8929 13.7143 13.0714 14.0714 12.0714 14.0714C11.0357 14.0357 10.2143 13.7143 9.64286 13.0714ZM20.8214 19C20.75 18.25 20.3929 17.2857 18.9643 16.9286C15 15.9286 14.3214 14.6071 14.2143 14.2143C14.5 14.0357 14.75 13.8214 15 13.5357C16.6071 11.7143 16.3214 8.57143 16.2857 8.32143C16.1071 4.21429 12.7857 4 12.1429 4C12.1071 4 12.0714 4 12.0357 4C12 4 11.9643 4 11.9286 4C11.2857 4 7.96429 4.21429 7.78572 8.32143C7.75 8.57143 7.46429 11.7143 9.07143 13.5357C9.32143 13.8214 9.64286 14.0714 9.96429 14.2857C9.78571 14.75 8.96429 15.9643 5.21429 16.9286C4.14286 17.2143 3.5 18.0357 3.39286 19.3214C1.75 17.3571 0.714286 14.7857 0.714286 12C0.714286 5.78571 5.78571 0.714286 12 0.714286C18.2143 0.714286 23.2857 5.78571 23.2857 12C23.2857 14.6429 22.3571 17.0714 20.8214 19Z" fill="black"/>
</svg>
