<svg width="158" height="59" viewBox="0 0 158 59" fill="none" xmlns="http://www.w3.org/2000/svg">
<path d="M9.331 26.553L8.742 27.359C8.53533 27.111 8.17367 26.863 7.657 26.615C7.161 26.367 6.65467 26.243 6.138 26.243C5.62133 26.243 5.146 26.4083 4.712 26.739C4.29867 27.0697 4.092 27.545 4.092 28.165C4.092 28.785 4.23667 29.2397 4.526 29.529C4.836 29.7977 5.28033 30.0353 5.859 30.242C6.43767 30.428 6.90267 30.6037 7.254 30.769C7.60533 30.9137 7.998 31.1307 8.432 31.42C9.34133 31.978 9.796 32.7323 9.796 33.683C9.796 34.6337 9.47567 35.4707 8.835 36.194C8.215 36.8967 7.316 37.248 6.138 37.248C4.526 37.248 3.33767 36.7623 2.573 35.791L3.255 34.954C3.54433 35.3467 3.98867 35.667 4.588 35.915C5.208 36.163 5.77633 36.2663 6.293 36.225C6.83033 36.1837 7.35733 35.9667 7.874 35.574C8.39067 35.1813 8.649 34.613 8.649 33.869C8.649 32.877 8.08067 32.164 6.944 31.73C6.696 31.6267 6.45833 31.544 6.231 31.482L5.487 31.234C5.21833 31.1307 5.04267 31.0687 4.96 31.048C4.898 31.0273 4.743 30.9653 4.495 30.862C4.26767 30.738 4.10233 30.645 3.999 30.583C3.91633 30.5003 3.79233 30.3867 3.627 30.242C3.46167 30.0767 3.348 29.9113 3.286 29.746C3.07933 29.2913 2.976 28.847 2.976 28.413C2.976 27.421 3.29633 26.646 3.937 26.088C4.59833 25.5093 5.35267 25.22 6.2 25.22C7.502 25.22 8.54567 25.6643 9.331 26.553ZM22.5566 37H21.2546L16.5736 30.614L14.2176 32.815V37H13.0706V13.75H14.1866V31.358L21.1306 24.91L21.8126 25.654L17.3796 29.839L22.5566 37ZM27.3267 37H26.2107V13.75H27.3267V37ZM42.2513 37H41.1043V35.14L41.1973 33.745C40.7633 34.799 40.0916 35.6567 39.1823 36.318C38.273 36.9587 37.2293 37.279 36.0513 37.279C34.3773 37.279 32.9513 36.69 31.7733 35.512C30.5953 34.3133 30.0063 32.8873 30.0063 31.234C30.0063 29.56 30.5953 28.134 31.7733 26.956C32.9513 25.7573 34.3773 25.158 36.0513 25.158C37.25 25.158 38.2833 25.468 39.1513 26.088C40.0193 26.708 40.6703 27.5347 41.1043 28.568L41.2593 25.375H42.2513V37ZM31.1533 31.203C31.1533 32.629 31.608 33.8277 32.5173 34.799C33.4473 35.7703 34.6253 36.256 36.0513 36.256C37.498 36.256 38.676 35.7703 39.5853 34.799C40.5153 33.8277 40.9803 32.629 40.9803 31.203C40.9803 29.7563 40.5153 28.5577 39.5853 27.607C38.676 26.6563 37.498 26.181 36.0513 26.181C34.6253 26.181 33.4473 26.6563 32.5173 27.607C31.608 28.5577 31.1533 29.7563 31.1533 31.203ZM58.2054 37H57.0584V35.14L57.1514 33.745C56.7174 34.799 56.0457 35.6567 55.1364 36.318C54.2271 36.9587 53.1834 37.279 52.0054 37.279C50.3314 37.279 48.9054 36.69 47.7274 35.512C46.5494 34.3133 45.9604 32.8873 45.9604 31.234C45.9604 29.56 46.5494 28.134 47.7274 26.956C48.9054 25.7573 50.3314 25.158 52.0054 25.158C53.2041 25.158 54.2374 25.468 55.1054 26.088C55.9734 26.708 56.6244 27.5347 57.0584 28.568V13.75H58.2054V37ZM47.1074 31.203C47.1074 32.629 47.5621 33.8277 48.4714 34.799C49.4014 35.7703 50.5794 36.256 52.0054 36.256C53.4521 36.256 54.6301 35.7703 55.5394 34.799C56.4694 33.8277 56.9344 32.629 56.9344 31.203C56.9344 29.7563 56.4694 28.5577 55.5394 27.607C54.6301 26.6563 53.4521 26.181 52.0054 26.181C50.5794 26.181 49.4014 26.6563 48.4714 27.607C47.5621 28.5577 47.1074 29.7563 47.1074 31.203ZM72.7849 31.203C72.7849 32.877 72.1959 34.3133 71.0179 35.512C69.8399 36.69 68.4035 37.279 66.7089 37.279C65.0349 37.279 63.6089 36.69 62.4309 35.512C61.2529 34.3133 60.6639 32.8873 60.6639 31.234C60.6639 29.56 61.2529 28.134 62.4309 26.956C63.6089 25.7573 65.0349 25.158 66.7089 25.158C68.4035 25.158 69.8399 25.747 71.0179 26.925C72.1959 28.103 72.7849 29.529 72.7849 31.203ZM61.8109 31.203C61.8109 32.629 62.2655 33.8277 63.1749 34.799C64.1049 35.7703 65.2829 36.256 66.7089 36.256C68.1555 36.256 69.3335 35.7703 70.2429 34.799C71.1729 33.8277 71.6379 32.629 71.6379 31.203C71.6379 29.7563 71.1729 28.5577 70.2429 27.607C69.3335 26.6563 68.1555 26.181 66.7089 26.181C65.2829 26.181 64.1049 26.6563 63.1749 27.607C62.2655 28.5577 61.8109 29.7563 61.8109 31.203ZM81.1062 35.388L86.1282 25.375H87.3372L81.1062 37.713L74.8752 25.375H76.0842L81.1062 35.388ZM91.7176 37H90.5706V25.375H91.7176V37ZM92.2446 20.88C92.2446 21.1487 92.1413 21.376 91.9346 21.562C91.7486 21.748 91.5213 21.841 91.2526 21.841C91.0046 21.841 90.7773 21.748 90.5706 21.562C90.3846 21.376 90.2916 21.1487 90.2916 20.88C90.2916 20.5907 90.395 20.353 90.6016 20.167C90.8083 19.9603 91.0356 19.857 91.2836 19.857C91.5316 19.857 91.7486 19.9603 91.9346 20.167C92.1413 20.353 92.2446 20.5907 92.2446 20.88ZM112.503 26.553L111.914 27.359C111.707 27.111 111.346 26.863 110.829 26.615C110.333 26.367 109.827 26.243 109.31 26.243C108.793 26.243 108.318 26.4083 107.884 26.739C107.471 27.0697 107.264 27.545 107.264 28.165C107.264 28.785 107.409 29.2397 107.698 29.529C108.008 29.7977 108.452 30.0353 109.031 30.242C109.61 30.428 110.075 30.6037 110.426 30.769C110.777 30.9137 111.17 31.1307 111.604 31.42C112.513 31.978 112.968 32.7323 112.968 33.683C112.968 34.6337 112.648 35.4707 112.007 36.194C111.387 36.8967 110.488 37.248 109.31 37.248C107.698 37.248 106.51 36.7623 105.745 35.791L106.427 34.954C106.716 35.3467 107.161 35.667 107.76 35.915C108.38 36.163 108.948 36.2663 109.465 36.225C110.002 36.1837 110.529 35.9667 111.046 35.574C111.563 35.1813 111.821 34.613 111.821 33.869C111.821 32.877 111.253 32.164 110.116 31.73C109.868 31.6267 109.63 31.544 109.403 31.482L108.659 31.234C108.39 31.1307 108.215 31.0687 108.132 31.048C108.07 31.0273 107.915 30.9653 107.667 30.862C107.44 30.738 107.274 30.645 107.171 30.583C107.088 30.5003 106.964 30.3867 106.799 30.242C106.634 30.0767 106.52 29.9113 106.458 29.746C106.251 29.2913 106.148 28.847 106.148 28.413C106.148 27.421 106.468 26.646 107.109 26.088C107.77 25.5093 108.525 25.22 109.372 25.22C110.674 25.22 111.718 25.6643 112.503 26.553ZM127.247 37H126.1V28.63C126.059 27.948 125.801 27.3797 125.325 26.925C124.85 26.4703 124.158 26.2223 123.248 26.181C121.884 26.181 120.706 26.5943 119.714 27.421C118.722 28.2477 118.226 29.281 118.226 30.521V37H117.079V13.75H118.226V28.506C118.66 27.4933 119.311 26.6873 120.179 26.088C121.068 25.4887 122.091 25.189 123.248 25.189C124.426 25.1683 125.377 25.4783 126.1 26.119C126.824 26.7597 127.206 27.5967 127.247 28.63V37ZM141.324 31.203C141.324 32.877 140.735 34.3133 139.557 35.512C138.379 36.69 136.943 37.279 135.248 37.279C133.574 37.279 132.148 36.69 130.97 35.512C129.792 34.3133 129.203 32.8873 129.203 31.234C129.203 29.56 129.792 28.134 130.97 26.956C132.148 25.7573 133.574 25.158 135.248 25.158C136.943 25.158 138.379 25.747 139.557 26.925C140.735 28.103 141.324 29.529 141.324 31.203ZM130.35 31.203C130.35 32.629 130.805 33.8277 131.714 34.799C132.644 35.7703 133.822 36.256 135.248 36.256C136.695 36.256 137.873 35.7703 138.782 34.799C139.712 33.8277 140.177 32.629 140.177 31.203C140.177 29.7563 139.712 28.5577 138.782 27.607C137.873 26.6563 136.695 26.181 135.248 26.181C133.822 26.181 132.644 26.6563 131.714 27.607C130.805 28.5577 130.35 29.7563 130.35 31.203ZM143.575 44.75V25.375H144.598L144.722 28.537C145.156 27.5037 145.807 26.677 146.675 26.057C147.543 25.437 148.576 25.127 149.775 25.127C151.449 25.127 152.875 25.7263 154.053 26.925C155.231 28.103 155.82 29.5187 155.82 31.172C155.82 32.8253 155.231 34.2513 154.053 35.45C152.875 36.628 151.449 37.217 149.775 37.217C148.576 37.217 147.543 36.907 146.675 36.287C145.807 35.667 145.156 34.8403 144.722 33.807V44.75H143.575ZM144.846 31.172C144.846 32.598 145.301 33.7967 146.21 34.768C147.14 35.7393 148.318 36.225 149.744 36.225C151.191 36.225 152.369 35.7393 153.278 34.768C154.208 33.7967 154.673 32.598 154.673 31.172C154.673 29.7253 154.208 28.5267 153.278 27.576C152.369 26.6253 151.191 26.15 149.744 26.15C148.318 26.15 147.14 26.6253 146.21 27.576C145.301 28.5267 144.846 29.7253 144.846 31.172Z" fill="white"/>
</svg>
